M48
; DRILL file {KiCad (5.1.10)-1} date 09/26/23 12:08:51
; FORMAT={-:-/ absolute / inch / decimal}
; #@! TF.CreationDate,2023-09-26T12:08:51+02:00
; #@! TF.GenerationSoftware,Kicad,Pcbnew,(5.1.10)-1
; #@! TF.FileFunction,Plated,1,2,PTH
FMAT,2
INCH
T1C0.0157
T2C0.0394
%
G90
G05
T1
X5.7677Y-2.8937
X5.7677Y-3.0472
X5.7835Y-3.2559
X5.7874Y-2.5866
X5.7913Y-2.7559
X5.8425Y-2.7835
X5.8583Y-3.1417
X5.878Y-2.6417
X5.8976Y-2.8189
X5.9016Y-3.0079
X5.9094Y-2.7087
X6.0Y-3.0315
X6.0197Y-2.6024
X6.1535Y-3.1102
X6.2402Y-2.6299
T2
X5.5766Y-2.4075
X5.5766Y-2.5075
X5.5766Y-2.6075
X5.5766Y-2.7075
X5.5766Y-2.8075
X5.5766Y-2.9075
X5.5766Y-3.0075
X5.5766Y-3.1075
X5.5766Y-3.2075
X5.5766Y-3.3075
X5.6766Y-2.4075
X5.6766Y-2.5075
X5.6766Y-2.6075
X5.6766Y-2.7075
X5.6766Y-2.8075
X5.6766Y-2.9075
X5.6766Y-3.0075
X5.6766Y-3.1075
X5.6766Y-3.2075
X5.6766Y-3.3075
X6.0575Y-2.7717
X6.0575Y-2.8717
X6.0575Y-2.9717
X6.1575Y-2.7717
X6.1575Y-2.8717
X6.1575Y-2.9717
T0
M30
