%TF.GenerationSoftware,KiCad,Pcbnew,(5.1.10)-1*%
%TF.CreationDate,2023-09-26T12:08:48+02:00*%
%TF.ProjectId,arm_20-6pin_K24DI1MA,61726d5f-3230-42d3-9670-696e5f4b3234,rev?*%
%TF.SameCoordinates,Original*%
%TF.FileFunction,Legend,Top*%
%TF.FilePolarity,Positive*%
%FSLAX46Y46*%
G04 Gerber Fmt 4.6, Leading zero omitted, Abs format (unit mm)*
G04 Created by KiCad (PCBNEW (5.1.10)-1) date 2023-09-26 12:08:48*
%MOMM*%
%LPD*%
G01*
G04 APERTURE LIST*
%ADD10C,0.100000*%
%ADD11C,0.150000*%
%ADD12C,0.120000*%
G04 APERTURE END LIST*
D10*
G36*
X148500000Y-74500000D02*
G01*
X147500000Y-74500000D01*
X147500000Y-71000000D01*
X148500000Y-71000000D01*
X148500000Y-74500000D01*
G37*
X148500000Y-74500000D02*
X147500000Y-74500000D01*
X147500000Y-71000000D01*
X148500000Y-71000000D01*
X148500000Y-74500000D01*
D11*
X150333333Y-78571428D02*
X150285714Y-78619047D01*
X150142857Y-78714285D01*
X150047619Y-78761904D01*
X149904761Y-78809523D01*
X149666666Y-78857142D01*
X149476190Y-78857142D01*
X149238095Y-78809523D01*
X149095238Y-78761904D01*
X149000000Y-78714285D01*
X148857142Y-78619047D01*
X148809523Y-78571428D01*
X149952380Y-78190476D02*
X148952380Y-78190476D01*
X149952380Y-77619047D02*
X149380952Y-78047619D01*
X148952380Y-77619047D02*
X149523809Y-78190476D01*
X149428571Y-77190476D02*
X149428571Y-76857142D01*
X149952380Y-76714285D02*
X149952380Y-77190476D01*
X148952380Y-77190476D01*
X148952380Y-76714285D01*
X149476190Y-76095238D02*
X149952380Y-76095238D01*
X148952380Y-76428571D02*
X149476190Y-76095238D01*
X148952380Y-75761904D01*
X148952380Y-74809523D02*
X148952380Y-74238095D01*
X149952380Y-74523809D02*
X148952380Y-74523809D01*
X149952380Y-73904761D02*
X148952380Y-73904761D01*
X149428571Y-73904761D02*
X149428571Y-73333333D01*
X149952380Y-73333333D02*
X148952380Y-73333333D01*
X149952380Y-72857142D02*
X148952380Y-72857142D01*
X149904761Y-72428571D02*
X149952380Y-72285714D01*
X149952380Y-72047619D01*
X149904761Y-71952380D01*
X149857142Y-71904761D01*
X149761904Y-71857142D01*
X149666666Y-71857142D01*
X149571428Y-71904761D01*
X149523809Y-71952380D01*
X149476190Y-72047619D01*
X149428571Y-72238095D01*
X149380952Y-72333333D01*
X149333333Y-72380952D01*
X149238095Y-72428571D01*
X149142857Y-72428571D01*
X149047619Y-72380952D01*
X149000000Y-72333333D01*
X148952380Y-72238095D01*
X148952380Y-72000000D01*
X149000000Y-71857142D01*
X149904761Y-70714285D02*
X149952380Y-70571428D01*
X149952380Y-70333333D01*
X149904761Y-70238095D01*
X149857142Y-70190476D01*
X149761904Y-70142857D01*
X149666666Y-70142857D01*
X149571428Y-70190476D01*
X149523809Y-70238095D01*
X149476190Y-70333333D01*
X149428571Y-70523809D01*
X149380952Y-70619047D01*
X149333333Y-70666666D01*
X149238095Y-70714285D01*
X149142857Y-70714285D01*
X149047619Y-70666666D01*
X149000000Y-70619047D01*
X148952380Y-70523809D01*
X148952380Y-70285714D01*
X149000000Y-70142857D01*
X149952380Y-69714285D02*
X148952380Y-69714285D01*
X149952380Y-69238095D02*
X148952380Y-69238095D01*
X148952380Y-69000000D01*
X149000000Y-68857142D01*
X149095238Y-68761904D01*
X149190476Y-68714285D01*
X149380952Y-68666666D01*
X149523809Y-68666666D01*
X149714285Y-68714285D01*
X149809523Y-68761904D01*
X149904761Y-68857142D01*
X149952380Y-69000000D01*
X149952380Y-69238095D01*
X149428571Y-68238095D02*
X149428571Y-67904761D01*
X149952380Y-67761904D02*
X149952380Y-68238095D01*
X148952380Y-68238095D01*
X148952380Y-67761904D01*
X150333333Y-67428571D02*
X150285714Y-67380952D01*
X150142857Y-67285714D01*
X150047619Y-67238095D01*
X149904761Y-67190476D01*
X149666666Y-67142857D01*
X149476190Y-67142857D01*
X149238095Y-67190476D01*
X149095238Y-67238095D01*
X149000000Y-67285714D01*
X148857142Y-67380952D01*
X148809523Y-67428571D01*
X147004761Y-83347619D02*
X147052380Y-83204761D01*
X147052380Y-82966666D01*
X147004761Y-82871428D01*
X146957142Y-82823809D01*
X146861904Y-82776190D01*
X146766666Y-82776190D01*
X146671428Y-82823809D01*
X146623809Y-82871428D01*
X146576190Y-82966666D01*
X146528571Y-83157142D01*
X146480952Y-83252380D01*
X146433333Y-83300000D01*
X146338095Y-83347619D01*
X146242857Y-83347619D01*
X146147619Y-83300000D01*
X146100000Y-83252380D01*
X146052380Y-83157142D01*
X146052380Y-82919047D01*
X146100000Y-82776190D01*
X146052380Y-82442857D02*
X147052380Y-82204761D01*
X146338095Y-82014285D01*
X147052380Y-81823809D01*
X146052380Y-81585714D01*
X147052380Y-81204761D02*
X146052380Y-81204761D01*
X146052380Y-80966666D01*
X146100000Y-80823809D01*
X146195238Y-80728571D01*
X146290476Y-80680952D01*
X146480952Y-80633333D01*
X146623809Y-80633333D01*
X146814285Y-80680952D01*
X146909523Y-80728571D01*
X147004761Y-80823809D01*
X147052380Y-80966666D01*
X147052380Y-81204761D01*
X146147619Y-79490476D02*
X146100000Y-79442857D01*
X146052380Y-79347619D01*
X146052380Y-79109523D01*
X146100000Y-79014285D01*
X146147619Y-78966666D01*
X146242857Y-78919047D01*
X146338095Y-78919047D01*
X146480952Y-78966666D01*
X147052380Y-79538095D01*
X147052380Y-78919047D01*
X146052380Y-78300000D02*
X146052380Y-78204761D01*
X146100000Y-78109523D01*
X146147619Y-78061904D01*
X146242857Y-78014285D01*
X146433333Y-77966666D01*
X146671428Y-77966666D01*
X146861904Y-78014285D01*
X146957142Y-78061904D01*
X147004761Y-78109523D01*
X147052380Y-78204761D01*
X147052380Y-78300000D01*
X147004761Y-78395238D01*
X146957142Y-78442857D01*
X146861904Y-78490476D01*
X146671428Y-78538095D01*
X146433333Y-78538095D01*
X146242857Y-78490476D01*
X146147619Y-78442857D01*
X146100000Y-78395238D01*
X146052380Y-78300000D01*
X146052380Y-76919047D02*
X146052380Y-76347619D01*
X147052380Y-76633333D02*
X146052380Y-76633333D01*
X146052380Y-75823809D02*
X146052380Y-75633333D01*
X146100000Y-75538095D01*
X146195238Y-75442857D01*
X146385714Y-75395238D01*
X146719047Y-75395238D01*
X146909523Y-75442857D01*
X147004761Y-75538095D01*
X147052380Y-75633333D01*
X147052380Y-75823809D01*
X147004761Y-75919047D01*
X146909523Y-76014285D01*
X146719047Y-76061904D01*
X146385714Y-76061904D01*
X146195238Y-76014285D01*
X146100000Y-75919047D01*
X146052380Y-75823809D01*
X146052380Y-73776190D02*
X146052380Y-73966666D01*
X146100000Y-74061904D01*
X146147619Y-74109523D01*
X146290476Y-74204761D01*
X146480952Y-74252380D01*
X146861904Y-74252380D01*
X146957142Y-74204761D01*
X147004761Y-74157142D01*
X147052380Y-74061904D01*
X147052380Y-73871428D01*
X147004761Y-73776190D01*
X146957142Y-73728571D01*
X146861904Y-73680952D01*
X146623809Y-73680952D01*
X146528571Y-73728571D01*
X146480952Y-73776190D01*
X146433333Y-73871428D01*
X146433333Y-74061904D01*
X146480952Y-74157142D01*
X146528571Y-74204761D01*
X146623809Y-74252380D01*
X147052380Y-72490476D02*
X146052380Y-72490476D01*
X146052380Y-72109523D01*
X146100000Y-72014285D01*
X146147619Y-71966666D01*
X146242857Y-71919047D01*
X146385714Y-71919047D01*
X146480952Y-71966666D01*
X146528571Y-72014285D01*
X146576190Y-72109523D01*
X146576190Y-72490476D01*
X147052380Y-71490476D02*
X146052380Y-71490476D01*
X147052380Y-71014285D02*
X146052380Y-71014285D01*
X147052380Y-70442857D01*
X146052380Y-70442857D01*
X146766666Y-69252380D02*
X146766666Y-68776190D01*
X147052380Y-69347619D02*
X146052380Y-69014285D01*
X147052380Y-68680952D01*
X147052380Y-68347619D02*
X146052380Y-68347619D01*
X146052380Y-68109523D01*
X146100000Y-67966666D01*
X146195238Y-67871428D01*
X146290476Y-67823809D01*
X146480952Y-67776190D01*
X146623809Y-67776190D01*
X146814285Y-67823809D01*
X146909523Y-67871428D01*
X147004761Y-67966666D01*
X147052380Y-68109523D01*
X147052380Y-68347619D01*
X146766666Y-67395238D02*
X146766666Y-66919047D01*
X147052380Y-67490476D02*
X146052380Y-67157142D01*
X147052380Y-66823809D01*
X147052380Y-66490476D02*
X146052380Y-66490476D01*
X146052380Y-66109523D01*
X146100000Y-66014285D01*
X146147619Y-65966666D01*
X146242857Y-65919047D01*
X146385714Y-65919047D01*
X146480952Y-65966666D01*
X146528571Y-66014285D01*
X146576190Y-66109523D01*
X146576190Y-66490476D01*
X146052380Y-65633333D02*
X146052380Y-65061904D01*
X147052380Y-65347619D02*
X146052380Y-65347619D01*
X146528571Y-64728571D02*
X146528571Y-64395238D01*
X147052380Y-64252380D02*
X147052380Y-64728571D01*
X146052380Y-64728571D01*
X146052380Y-64252380D01*
X147052380Y-63252380D02*
X146576190Y-63585714D01*
X147052380Y-63823809D02*
X146052380Y-63823809D01*
X146052380Y-63442857D01*
X146100000Y-63347619D01*
X146147619Y-63300000D01*
X146242857Y-63252380D01*
X146385714Y-63252380D01*
X146480952Y-63300000D01*
X146528571Y-63347619D01*
X146576190Y-63442857D01*
X146576190Y-63823809D01*
D12*
%TO.C,J2*%
X131555000Y-59940000D02*
X140185000Y-59940000D01*
X131555000Y-60058095D02*
X140185000Y-60058095D01*
X131555000Y-60176190D02*
X140185000Y-60176190D01*
X131555000Y-60294285D02*
X140185000Y-60294285D01*
X131555000Y-60412380D02*
X140185000Y-60412380D01*
X131555000Y-60530475D02*
X140185000Y-60530475D01*
X131555000Y-60648570D02*
X140185000Y-60648570D01*
X131555000Y-60766665D02*
X140185000Y-60766665D01*
X131555000Y-60884760D02*
X140185000Y-60884760D01*
X131555000Y-61002855D02*
X140185000Y-61002855D01*
X131555000Y-61120950D02*
X140185000Y-61120950D01*
X131555000Y-61239045D02*
X140185000Y-61239045D01*
X131555000Y-61357140D02*
X140185000Y-61357140D01*
X131555000Y-61475235D02*
X140185000Y-61475235D01*
X131555000Y-61593330D02*
X140185000Y-61593330D01*
X131555000Y-61711425D02*
X140185000Y-61711425D01*
X131555000Y-61829520D02*
X140185000Y-61829520D01*
X131555000Y-61947615D02*
X140185000Y-61947615D01*
X131555000Y-62065710D02*
X140185000Y-62065710D01*
X131555000Y-62183805D02*
X140185000Y-62183805D01*
X131555000Y-62301900D02*
X140185000Y-62301900D01*
X140185000Y-60790000D02*
X140595000Y-60790000D01*
X142695000Y-60790000D02*
X143075000Y-60790000D01*
X140185000Y-61510000D02*
X140595000Y-61510000D01*
X142695000Y-61510000D02*
X143075000Y-61510000D01*
X140185000Y-63330000D02*
X140595000Y-63330000D01*
X142695000Y-63330000D02*
X143135000Y-63330000D01*
X140185000Y-64050000D02*
X140595000Y-64050000D01*
X142695000Y-64050000D02*
X143135000Y-64050000D01*
X140185000Y-65870000D02*
X140595000Y-65870000D01*
X142695000Y-65870000D02*
X143135000Y-65870000D01*
X140185000Y-66590000D02*
X140595000Y-66590000D01*
X142695000Y-66590000D02*
X143135000Y-66590000D01*
X140185000Y-68410000D02*
X140595000Y-68410000D01*
X142695000Y-68410000D02*
X143135000Y-68410000D01*
X140185000Y-69130000D02*
X140595000Y-69130000D01*
X142695000Y-69130000D02*
X143135000Y-69130000D01*
X140185000Y-70950000D02*
X140595000Y-70950000D01*
X142695000Y-70950000D02*
X143135000Y-70950000D01*
X140185000Y-71670000D02*
X140595000Y-71670000D01*
X142695000Y-71670000D02*
X143135000Y-71670000D01*
X140185000Y-73490000D02*
X140595000Y-73490000D01*
X142695000Y-73490000D02*
X143135000Y-73490000D01*
X140185000Y-74210000D02*
X140595000Y-74210000D01*
X142695000Y-74210000D02*
X143135000Y-74210000D01*
X140185000Y-76030000D02*
X140595000Y-76030000D01*
X142695000Y-76030000D02*
X143135000Y-76030000D01*
X140185000Y-76750000D02*
X140595000Y-76750000D01*
X142695000Y-76750000D02*
X143135000Y-76750000D01*
X140185000Y-78570000D02*
X140595000Y-78570000D01*
X142695000Y-78570000D02*
X143135000Y-78570000D01*
X140185000Y-79290000D02*
X140595000Y-79290000D01*
X142695000Y-79290000D02*
X143135000Y-79290000D01*
X140185000Y-81110000D02*
X140595000Y-81110000D01*
X142695000Y-81110000D02*
X143135000Y-81110000D01*
X140185000Y-81830000D02*
X140595000Y-81830000D01*
X142695000Y-81830000D02*
X143135000Y-81830000D01*
X140185000Y-83650000D02*
X140595000Y-83650000D01*
X142695000Y-83650000D02*
X143135000Y-83650000D01*
X140185000Y-84370000D02*
X140595000Y-84370000D01*
X142695000Y-84370000D02*
X143135000Y-84370000D01*
X131555000Y-62420000D02*
X140185000Y-62420000D01*
X131555000Y-64960000D02*
X140185000Y-64960000D01*
X131555000Y-67500000D02*
X140185000Y-67500000D01*
X131555000Y-70040000D02*
X140185000Y-70040000D01*
X131555000Y-72580000D02*
X140185000Y-72580000D01*
X131555000Y-75120000D02*
X140185000Y-75120000D01*
X131555000Y-77660000D02*
X140185000Y-77660000D01*
X131555000Y-80200000D02*
X140185000Y-80200000D01*
X131555000Y-82740000D02*
X140185000Y-82740000D01*
X131555000Y-59820000D02*
X140185000Y-59820000D01*
X140185000Y-59820000D02*
X140185000Y-85340000D01*
X131555000Y-85340000D02*
X140185000Y-85340000D01*
X131555000Y-59820000D02*
X131555000Y-85340000D01*
X145295000Y-59820000D02*
X145295000Y-61150000D01*
X144185000Y-59820000D02*
X145295000Y-59820000D01*
%TO.C,J1*%
X159690000Y-80690000D02*
X150570000Y-80690000D01*
X150570000Y-80690000D02*
X150570000Y-65190000D01*
X150570000Y-65190000D02*
X159690000Y-65190000D01*
X159690000Y-65190000D02*
X159690000Y-80690000D01*
X159690000Y-74990000D02*
X158380000Y-74990000D01*
X158380000Y-74990000D02*
X158380000Y-79390000D01*
X158380000Y-79390000D02*
X151880000Y-79390000D01*
X151880000Y-79390000D02*
X151880000Y-66490000D01*
X151880000Y-66490000D02*
X158380000Y-66490000D01*
X158380000Y-66490000D02*
X158380000Y-70890000D01*
X158380000Y-70890000D02*
X158380000Y-70890000D01*
X158380000Y-70890000D02*
X159690000Y-70890000D01*
X160080000Y-75480000D02*
X161080000Y-75980000D01*
X161080000Y-75980000D02*
X161080000Y-74980000D01*
X161080000Y-74980000D02*
X160080000Y-75480000D01*
%TO.C,J2*%
D11*
X146066666Y-60752380D02*
X146066666Y-61466666D01*
X146019047Y-61609523D01*
X145923809Y-61704761D01*
X145780952Y-61752380D01*
X145685714Y-61752380D01*
X146495238Y-60847619D02*
X146542857Y-60800000D01*
X146638095Y-60752380D01*
X146876190Y-60752380D01*
X146971428Y-60800000D01*
X147019047Y-60847619D01*
X147066666Y-60942857D01*
X147066666Y-61038095D01*
X147019047Y-61180952D01*
X146447619Y-61752380D01*
X147066666Y-61752380D01*
%TO.C,J1*%
X149766666Y-80852380D02*
X149766666Y-81566666D01*
X149719047Y-81709523D01*
X149623809Y-81804761D01*
X149480952Y-81852380D01*
X149385714Y-81852380D01*
X150766666Y-81852380D02*
X150195238Y-81852380D01*
X150480952Y-81852380D02*
X150480952Y-80852380D01*
X150385714Y-80995238D01*
X150290476Y-81090476D01*
X150195238Y-81138095D01*
%TD*%
M02*
