%TF.GenerationSoftware,KiCad,Pcbnew,(5.1.10)-1*%
%TF.CreationDate,2023-09-26T12:08:48+02:00*%
%TF.ProjectId,arm_20-6pin_K24DI1MA,61726d5f-3230-42d3-9670-696e5f4b3234,rev?*%
%TF.SameCoordinates,Original*%
%TF.FileFunction,Copper,L2,Bot*%
%TF.FilePolarity,Positive*%
%FSLAX46Y46*%
G04 Gerber Fmt 4.6, Leading zero omitted, Abs format (unit mm)*
G04 Created by KiCad (PCBNEW (5.1.10)-1) date 2023-09-26 12:08:48*
%MOMM*%
%LPD*%
G01*
G04 APERTURE LIST*
%TA.AperFunction,ComponentPad*%
%ADD10O,1.700000X1.700000*%
%TD*%
%TA.AperFunction,ComponentPad*%
%ADD11R,1.700000X1.700000*%
%TD*%
%TA.AperFunction,ComponentPad*%
%ADD12C,1.700000*%
%TD*%
%TA.AperFunction,ViaPad*%
%ADD13C,0.800000*%
%TD*%
%TA.AperFunction,Conductor*%
%ADD14C,0.300000*%
%TD*%
%TA.AperFunction,Conductor*%
%ADD15C,0.500000*%
%TD*%
%TA.AperFunction,Conductor*%
%ADD16C,0.250000*%
%TD*%
%TA.AperFunction,Conductor*%
%ADD17C,0.100000*%
%TD*%
G04 APERTURE END LIST*
%TO.P,R1,2*%
%TO.N,Net-(J2-Pad2)*%
%TA.AperFunction,SMDPad,CuDef*%
G36*
G01*
X146475000Y-62925000D02*
X147025000Y-62925000D01*
G75*
G02*
X147225000Y-63125000I0J-200000D01*
G01*
X147225000Y-63525000D01*
G75*
G02*
X147025000Y-63725000I-200000J0D01*
G01*
X146475000Y-63725000D01*
G75*
G02*
X146275000Y-63525000I0J200000D01*
G01*
X146275000Y-63125000D01*
G75*
G02*
X146475000Y-62925000I200000J0D01*
G01*
G37*
%TD.AperFunction*%
%TO.P,R1,1*%
%TO.N,/VTREF*%
%TA.AperFunction,SMDPad,CuDef*%
G36*
G01*
X146475000Y-61275000D02*
X147025000Y-61275000D01*
G75*
G02*
X147225000Y-61475000I0J-200000D01*
G01*
X147225000Y-61875000D01*
G75*
G02*
X147025000Y-62075000I-200000J0D01*
G01*
X146475000Y-62075000D01*
G75*
G02*
X146275000Y-61875000I0J200000D01*
G01*
X146275000Y-61475000D01*
G75*
G02*
X146475000Y-61275000I200000J0D01*
G01*
G37*
%TD.AperFunction*%
%TD*%
%TO.P,J2,20*%
%TO.N,GND*%
%TA.AperFunction,ComponentPad*%
G36*
G01*
X141043959Y-84611041D02*
X141043959Y-84611041D01*
G75*
G02*
X141043959Y-83408959I601041J601041D01*
G01*
X141043959Y-83408959D01*
G75*
G02*
X142246041Y-83408959I601041J-601041D01*
G01*
X142246041Y-83408959D01*
G75*
G02*
X142246041Y-84611041I-601041J-601041D01*
G01*
X142246041Y-84611041D01*
G75*
G02*
X141043959Y-84611041I-601041J601041D01*
G01*
G37*
%TD.AperFunction*%
D10*
%TO.P,J2,19*%
%TO.N,Net-(J2-Pad19)*%
X144185000Y-84010000D03*
%TO.P,J2,18*%
%TO.N,GND*%
%TA.AperFunction,ComponentPad*%
G36*
G01*
X141043959Y-82071041D02*
X141043959Y-82071041D01*
G75*
G02*
X141043959Y-80868959I601041J601041D01*
G01*
X141043959Y-80868959D01*
G75*
G02*
X142246041Y-80868959I601041J-601041D01*
G01*
X142246041Y-80868959D01*
G75*
G02*
X142246041Y-82071041I-601041J-601041D01*
G01*
X142246041Y-82071041D01*
G75*
G02*
X141043959Y-82071041I-601041J601041D01*
G01*
G37*
%TD.AperFunction*%
%TO.P,J2,17*%
%TO.N,Net-(J2-Pad17)*%
X144185000Y-81470000D03*
%TO.P,J2,16*%
%TO.N,GND*%
%TA.AperFunction,ComponentPad*%
G36*
G01*
X141043959Y-79531041D02*
X141043959Y-79531041D01*
G75*
G02*
X141043959Y-78328959I601041J601041D01*
G01*
X141043959Y-78328959D01*
G75*
G02*
X142246041Y-78328959I601041J-601041D01*
G01*
X142246041Y-78328959D01*
G75*
G02*
X142246041Y-79531041I-601041J-601041D01*
G01*
X142246041Y-79531041D01*
G75*
G02*
X141043959Y-79531041I-601041J601041D01*
G01*
G37*
%TD.AperFunction*%
%TO.P,J2,15*%
%TO.N,/RESET*%
X144185000Y-78930000D03*
%TO.P,J2,14*%
%TO.N,GND*%
%TA.AperFunction,ComponentPad*%
G36*
G01*
X141043959Y-76991041D02*
X141043959Y-76991041D01*
G75*
G02*
X141043959Y-75788959I601041J601041D01*
G01*
X141043959Y-75788959D01*
G75*
G02*
X142246041Y-75788959I601041J-601041D01*
G01*
X142246041Y-75788959D01*
G75*
G02*
X142246041Y-76991041I-601041J-601041D01*
G01*
X142246041Y-76991041D01*
G75*
G02*
X141043959Y-76991041I-601041J601041D01*
G01*
G37*
%TD.AperFunction*%
%TO.P,J2,13*%
%TO.N,/SWO*%
X144185000Y-76390000D03*
%TO.P,J2,12*%
%TO.N,GND*%
%TA.AperFunction,ComponentPad*%
G36*
G01*
X141043959Y-74451041D02*
X141043959Y-74451041D01*
G75*
G02*
X141043959Y-73248959I601041J601041D01*
G01*
X141043959Y-73248959D01*
G75*
G02*
X142246041Y-73248959I601041J-601041D01*
G01*
X142246041Y-73248959D01*
G75*
G02*
X142246041Y-74451041I-601041J-601041D01*
G01*
X142246041Y-74451041D01*
G75*
G02*
X141043959Y-74451041I-601041J601041D01*
G01*
G37*
%TD.AperFunction*%
%TO.P,J2,11*%
%TO.N,Net-(J2-Pad11)*%
X144185000Y-73850000D03*
%TO.P,J2,10*%
%TO.N,GND*%
%TA.AperFunction,ComponentPad*%
G36*
G01*
X141043959Y-71911041D02*
X141043959Y-71911041D01*
G75*
G02*
X141043959Y-70708959I601041J601041D01*
G01*
X141043959Y-70708959D01*
G75*
G02*
X142246041Y-70708959I601041J-601041D01*
G01*
X142246041Y-70708959D01*
G75*
G02*
X142246041Y-71911041I-601041J-601041D01*
G01*
X142246041Y-71911041D01*
G75*
G02*
X141043959Y-71911041I-601041J601041D01*
G01*
G37*
%TD.AperFunction*%
%TO.P,J2,9*%
%TO.N,/SWCLK*%
X144185000Y-71310000D03*
%TO.P,J2,8*%
%TO.N,GND*%
%TA.AperFunction,ComponentPad*%
G36*
G01*
X141043959Y-69371041D02*
X141043959Y-69371041D01*
G75*
G02*
X141043959Y-68168959I601041J601041D01*
G01*
X141043959Y-68168959D01*
G75*
G02*
X142246041Y-68168959I601041J-601041D01*
G01*
X142246041Y-68168959D01*
G75*
G02*
X142246041Y-69371041I-601041J-601041D01*
G01*
X142246041Y-69371041D01*
G75*
G02*
X141043959Y-69371041I-601041J601041D01*
G01*
G37*
%TD.AperFunction*%
%TO.P,J2,7*%
%TO.N,/SWDIO*%
X144185000Y-68770000D03*
%TO.P,J2,6*%
%TO.N,GND*%
%TA.AperFunction,ComponentPad*%
G36*
G01*
X141043959Y-66831041D02*
X141043959Y-66831041D01*
G75*
G02*
X141043959Y-65628959I601041J601041D01*
G01*
X141043959Y-65628959D01*
G75*
G02*
X142246041Y-65628959I601041J-601041D01*
G01*
X142246041Y-65628959D01*
G75*
G02*
X142246041Y-66831041I-601041J-601041D01*
G01*
X142246041Y-66831041D01*
G75*
G02*
X141043959Y-66831041I-601041J601041D01*
G01*
G37*
%TD.AperFunction*%
%TO.P,J2,5*%
%TO.N,Net-(J2-Pad5)*%
X144185000Y-66230000D03*
%TO.P,J2,4*%
%TO.N,GND*%
%TA.AperFunction,ComponentPad*%
G36*
G01*
X141043959Y-64291041D02*
X141043959Y-64291041D01*
G75*
G02*
X141043959Y-63088959I601041J601041D01*
G01*
X141043959Y-63088959D01*
G75*
G02*
X142246041Y-63088959I601041J-601041D01*
G01*
X142246041Y-63088959D01*
G75*
G02*
X142246041Y-64291041I-601041J-601041D01*
G01*
X142246041Y-64291041D01*
G75*
G02*
X141043959Y-64291041I-601041J601041D01*
G01*
G37*
%TD.AperFunction*%
%TO.P,J2,3*%
%TO.N,Net-(J2-Pad3)*%
X144185000Y-63690000D03*
%TO.P,J2,2*%
%TO.N,Net-(J2-Pad2)*%
X141645000Y-61150000D03*
D11*
%TO.P,J2,1*%
%TO.N,/VTREF*%
X144185000Y-61150000D03*
%TD*%
D12*
%TO.P,J1,6*%
%TO.N,/SWO*%
X153860000Y-70400000D03*
%TO.P,J1,4*%
%TO.N,/SWCLK*%
X153860000Y-72940000D03*
%TO.P,J1,2*%
%TO.N,/SWDIO*%
X153860000Y-75480000D03*
%TO.P,J1,5*%
%TO.N,GND*%
X156400000Y-70400000D03*
%TO.P,J1,3*%
%TO.N,/RESET*%
X156400000Y-72940000D03*
%TO.P,J1,1*%
%TO.N,/VTREF*%
%TA.AperFunction,ComponentPad*%
G36*
G01*
X157250000Y-74880000D02*
X157250000Y-76080000D01*
G75*
G02*
X157000000Y-76330000I-250000J0D01*
G01*
X155800000Y-76330000D01*
G75*
G02*
X155550000Y-76080000I0J250000D01*
G01*
X155550000Y-74880000D01*
G75*
G02*
X155800000Y-74630000I250000J0D01*
G01*
X157000000Y-74630000D01*
G75*
G02*
X157250000Y-74880000I0J-250000D01*
G01*
G37*
%TD.AperFunction*%
%TD*%
D13*
%TO.N,/SWO*%
X148400000Y-70700000D03*
%TO.N,/SWDIO*%
X150100000Y-68800000D03*
%TO.N,GND*%
X147000000Y-65700000D03*
X147100000Y-70000000D03*
X149800000Y-71600000D03*
X146500000Y-73500000D03*
X148800000Y-79800000D03*
X156300000Y-79000000D03*
X146900000Y-82700000D03*
X152900000Y-66100000D03*
X149900000Y-76400000D03*
X152400000Y-77000000D03*
X158500000Y-66800000D03*
X146500000Y-77400000D03*
X149300000Y-67100000D03*
%TD*%
D14*
%TO.N,/SWO*%
X148700000Y-70400000D02*
X148400000Y-70700000D01*
X153860000Y-70400000D02*
X148700000Y-70400000D01*
%TO.N,/SWCLK*%
X148540000Y-72940000D02*
X153860000Y-72940000D01*
X146910000Y-71310000D02*
X148540000Y-72940000D01*
X144185000Y-71310000D02*
X146910000Y-71310000D01*
%TO.N,/SWDIO*%
X148870000Y-68770000D02*
X144185000Y-68770000D01*
X150070000Y-68770000D02*
X150100000Y-68800000D01*
X148870000Y-68770000D02*
X150070000Y-68770000D01*
X153780000Y-75400000D02*
X153860000Y-75480000D01*
D15*
%TO.N,GND*%
X141645000Y-63690000D02*
X142955000Y-65000000D01*
D14*
X146300000Y-65000000D02*
X147000000Y-65700000D01*
D15*
X142875000Y-65000000D02*
X143100000Y-65000000D01*
X141645000Y-66230000D02*
X142875000Y-65000000D01*
D14*
X143100000Y-65000000D02*
X146300000Y-65000000D01*
X142955000Y-65000000D02*
X143100000Y-65000000D01*
D15*
X141645000Y-84010000D02*
X142855000Y-82800000D01*
X142855000Y-82680000D02*
X141645000Y-81470000D01*
X142855000Y-82800000D02*
X142855000Y-82680000D01*
X141645000Y-66230000D02*
X143015000Y-67600000D01*
%TO.N,/VTREF*%
X146750000Y-61675000D02*
X145975000Y-61675000D01*
X145975000Y-61675000D02*
X145450000Y-61150000D01*
X145450000Y-61150000D02*
X144185000Y-61150000D01*
X147100000Y-62000000D02*
X147075000Y-62000000D01*
X152500000Y-67400000D02*
X147100000Y-62000000D01*
X147075000Y-62000000D02*
X146750000Y-61675000D01*
X156400000Y-67400000D02*
X152500000Y-67400000D01*
X158500000Y-69500000D02*
X156400000Y-67400000D01*
X158500000Y-74000000D02*
X158500000Y-69500000D01*
X157020000Y-75480000D02*
X158500000Y-74000000D01*
X156400000Y-75480000D02*
X157020000Y-75480000D01*
D14*
%TO.N,Net-(J2-Pad2)*%
X142895000Y-62400000D02*
X141645000Y-61150000D01*
X145700000Y-62400000D02*
X142895000Y-62400000D01*
X146625000Y-63325000D02*
X145700000Y-62400000D01*
X146750000Y-63325000D02*
X146625000Y-63325000D01*
%TD*%
D16*
%TO.N,GND*%
X140603729Y-61706571D02*
X140732318Y-61899019D01*
X140895981Y-62062682D01*
X141088429Y-62191271D01*
X141302265Y-62279845D01*
X141529273Y-62325000D01*
X141760727Y-62325000D01*
X141987735Y-62279845D01*
X142069306Y-62246057D01*
X142487906Y-62664657D01*
X142401838Y-62750725D01*
X142315752Y-62547320D01*
X142222455Y-62497446D01*
X141978703Y-62407705D01*
X141722128Y-62367242D01*
X141462588Y-62377611D01*
X141210059Y-62438415D01*
X140974245Y-62547316D01*
X140887716Y-62750283D01*
X141645000Y-63507566D01*
X141659142Y-63493424D01*
X141841576Y-63675858D01*
X141827434Y-63690000D01*
X142584717Y-64447284D01*
X142787684Y-64360755D01*
X142896585Y-64124941D01*
X142957389Y-63872412D01*
X142967758Y-63612872D01*
X142927295Y-63356297D01*
X142837554Y-63112545D01*
X142787680Y-63019248D01*
X142584275Y-62933162D01*
X142673135Y-62844302D01*
X142606768Y-62777935D01*
X142629827Y-62796859D01*
X142712346Y-62840966D01*
X142774722Y-62859888D01*
X142801883Y-62868127D01*
X142895000Y-62877298D01*
X142918332Y-62875000D01*
X143338299Y-62875000D01*
X143272318Y-62940981D01*
X143143729Y-63133429D01*
X143055155Y-63347265D01*
X143010000Y-63574273D01*
X143010000Y-63805727D01*
X143055155Y-64032735D01*
X143143729Y-64246571D01*
X143272318Y-64439019D01*
X143435981Y-64602682D01*
X143628429Y-64731271D01*
X143842265Y-64819845D01*
X144069273Y-64865000D01*
X144300727Y-64865000D01*
X144527735Y-64819845D01*
X144741571Y-64731271D01*
X144934019Y-64602682D01*
X145097682Y-64439019D01*
X145226271Y-64246571D01*
X145314845Y-64032735D01*
X145360000Y-63805727D01*
X145360000Y-63574273D01*
X145314845Y-63347265D01*
X145226271Y-63133429D01*
X145097682Y-62940981D01*
X145031701Y-62875000D01*
X145503250Y-62875000D01*
X145948428Y-63320179D01*
X145948428Y-63525000D01*
X145958546Y-63627729D01*
X145988511Y-63726510D01*
X146037171Y-63817548D01*
X146102657Y-63897343D01*
X146182452Y-63962829D01*
X146273490Y-64011489D01*
X146372271Y-64041454D01*
X146475000Y-64051572D01*
X147025000Y-64051572D01*
X147127729Y-64041454D01*
X147226510Y-64011489D01*
X147317548Y-63962829D01*
X147397343Y-63897343D01*
X147462829Y-63817548D01*
X147511489Y-63726510D01*
X147541454Y-63627729D01*
X147551572Y-63525000D01*
X147551572Y-63264744D01*
X152073439Y-67786612D01*
X152091446Y-67808554D01*
X152133153Y-67842782D01*
X152179001Y-67880408D01*
X152278892Y-67933801D01*
X152387280Y-67966680D01*
X152471754Y-67975000D01*
X152471756Y-67975000D01*
X152499999Y-67977782D01*
X152528242Y-67975000D01*
X156161828Y-67975000D01*
X157925001Y-69738173D01*
X157925000Y-73761827D01*
X157298106Y-74388721D01*
X157220645Y-74347317D01*
X157112484Y-74314507D01*
X157000000Y-74303428D01*
X155800000Y-74303428D01*
X155687516Y-74314507D01*
X155579355Y-74347317D01*
X155479674Y-74400598D01*
X155392302Y-74472302D01*
X155320598Y-74559674D01*
X155267317Y-74659355D01*
X155234507Y-74767516D01*
X155223428Y-74880000D01*
X155223428Y-76080000D01*
X155234507Y-76192484D01*
X155267317Y-76300645D01*
X155320598Y-76400326D01*
X155392302Y-76487698D01*
X155479674Y-76559402D01*
X155579355Y-76612683D01*
X155687516Y-76645493D01*
X155800000Y-76656572D01*
X157000000Y-76656572D01*
X157112484Y-76645493D01*
X157220645Y-76612683D01*
X157320326Y-76559402D01*
X157407698Y-76487698D01*
X157479402Y-76400326D01*
X157532683Y-76300645D01*
X157565493Y-76192484D01*
X157576572Y-76080000D01*
X157576572Y-75736600D01*
X158886613Y-74426560D01*
X158908554Y-74408554D01*
X158958809Y-74347317D01*
X158980408Y-74320999D01*
X159033801Y-74221108D01*
X159042408Y-74192735D01*
X159066680Y-74112720D01*
X159075000Y-74028246D01*
X159075000Y-74028244D01*
X159077782Y-74000001D01*
X159075000Y-73971758D01*
X159075000Y-69528242D01*
X159077782Y-69499999D01*
X159072117Y-69442487D01*
X159066680Y-69387280D01*
X159033801Y-69278892D01*
X158994273Y-69204941D01*
X158980408Y-69179001D01*
X158960085Y-69154238D01*
X158908554Y-69091446D01*
X158886606Y-69073434D01*
X156826566Y-67013394D01*
X156808554Y-66991446D01*
X156720998Y-66919592D01*
X156621108Y-66866199D01*
X156512720Y-66833320D01*
X156428246Y-66825000D01*
X156428243Y-66825000D01*
X156400000Y-66822218D01*
X156371757Y-66825000D01*
X152738173Y-66825000D01*
X152228418Y-66315245D01*
X152375816Y-65185196D01*
X152450308Y-65247458D01*
X152451315Y-65248685D01*
X152476723Y-65269536D01*
X152488730Y-65279572D01*
X152490036Y-65280462D01*
X152504610Y-65292422D01*
X152518457Y-65299823D01*
X152531434Y-65308664D01*
X152548785Y-65316034D01*
X152565413Y-65324922D01*
X152580442Y-65329481D01*
X152594890Y-65335618D01*
X152613342Y-65339461D01*
X152631388Y-65344935D01*
X152647019Y-65346475D01*
X152662386Y-65349675D01*
X152681232Y-65349844D01*
X152682811Y-65350000D01*
X152698524Y-65350000D01*
X152731327Y-65350295D01*
X152732883Y-65350000D01*
X159450001Y-65350000D01*
X159450000Y-80450000D01*
X152758678Y-80450000D01*
X152732949Y-80448721D01*
X152707248Y-80452518D01*
X152681388Y-80455065D01*
X152673205Y-80457547D01*
X152664745Y-80458797D01*
X152640283Y-80467534D01*
X152615413Y-80475078D01*
X152607866Y-80479112D01*
X152599819Y-80481986D01*
X152577533Y-80495326D01*
X152554610Y-80507578D01*
X152534690Y-80523925D01*
X145884491Y-85450000D01*
X140600000Y-85450000D01*
X140600000Y-84949273D01*
X140888161Y-84949273D01*
X140974248Y-85152680D01*
X141067545Y-85202554D01*
X141311297Y-85292295D01*
X141567872Y-85332758D01*
X141827412Y-85322389D01*
X142079941Y-85261585D01*
X142315755Y-85152684D01*
X142402284Y-84949717D01*
X141645000Y-84192434D01*
X140888161Y-84949273D01*
X140600000Y-84949273D01*
X140600000Y-84722093D01*
X140705727Y-84766839D01*
X141462566Y-84010000D01*
X141827434Y-84010000D01*
X142584717Y-84767284D01*
X142787684Y-84680755D01*
X142896585Y-84444941D01*
X142957389Y-84192412D01*
X142967758Y-83932872D01*
X142961671Y-83894273D01*
X143010000Y-83894273D01*
X143010000Y-84125727D01*
X143055155Y-84352735D01*
X143143729Y-84566571D01*
X143272318Y-84759019D01*
X143435981Y-84922682D01*
X143628429Y-85051271D01*
X143842265Y-85139845D01*
X144069273Y-85185000D01*
X144300727Y-85185000D01*
X144527735Y-85139845D01*
X144741571Y-85051271D01*
X144934019Y-84922682D01*
X145097682Y-84759019D01*
X145226271Y-84566571D01*
X145314845Y-84352735D01*
X145360000Y-84125727D01*
X145360000Y-83894273D01*
X145314845Y-83667265D01*
X145226271Y-83453429D01*
X145097682Y-83260981D01*
X144934019Y-83097318D01*
X144741571Y-82968729D01*
X144527735Y-82880155D01*
X144300727Y-82835000D01*
X144069273Y-82835000D01*
X143842265Y-82880155D01*
X143628429Y-82968729D01*
X143435981Y-83097318D01*
X143272318Y-83260981D01*
X143143729Y-83453429D01*
X143055155Y-83667265D01*
X143010000Y-83894273D01*
X142961671Y-83894273D01*
X142927295Y-83676297D01*
X142837554Y-83432545D01*
X142787680Y-83339248D01*
X142584273Y-83253161D01*
X141827434Y-84010000D01*
X141462566Y-84010000D01*
X140705283Y-83252716D01*
X140600000Y-83297600D01*
X140600000Y-83070283D01*
X140887716Y-83070283D01*
X141645000Y-83827566D01*
X142401839Y-83070727D01*
X142315752Y-82867320D01*
X142222455Y-82817446D01*
X142008683Y-82738743D01*
X142079941Y-82721585D01*
X142315755Y-82612684D01*
X142402284Y-82409717D01*
X141645000Y-81652434D01*
X140888161Y-82409273D01*
X140974248Y-82612680D01*
X141067545Y-82662554D01*
X141281317Y-82741257D01*
X141210059Y-82758415D01*
X140974245Y-82867316D01*
X140887716Y-83070283D01*
X140600000Y-83070283D01*
X140600000Y-82182093D01*
X140705727Y-82226839D01*
X141462566Y-81470000D01*
X141827434Y-81470000D01*
X142584717Y-82227284D01*
X142787684Y-82140755D01*
X142896585Y-81904941D01*
X142957389Y-81652412D01*
X142967758Y-81392872D01*
X142961671Y-81354273D01*
X143010000Y-81354273D01*
X143010000Y-81585727D01*
X143055155Y-81812735D01*
X143143729Y-82026571D01*
X143272318Y-82219019D01*
X143435981Y-82382682D01*
X143628429Y-82511271D01*
X143842265Y-82599845D01*
X144069273Y-82645000D01*
X144300727Y-82645000D01*
X144527735Y-82599845D01*
X144741571Y-82511271D01*
X144934019Y-82382682D01*
X145097682Y-82219019D01*
X145226271Y-82026571D01*
X145314845Y-81812735D01*
X145360000Y-81585727D01*
X145360000Y-81354273D01*
X145314845Y-81127265D01*
X145226271Y-80913429D01*
X145097682Y-80720981D01*
X144934019Y-80557318D01*
X144741571Y-80428729D01*
X144527735Y-80340155D01*
X144300727Y-80295000D01*
X144069273Y-80295000D01*
X143842265Y-80340155D01*
X143628429Y-80428729D01*
X143435981Y-80557318D01*
X143272318Y-80720981D01*
X143143729Y-80913429D01*
X143055155Y-81127265D01*
X143010000Y-81354273D01*
X142961671Y-81354273D01*
X142927295Y-81136297D01*
X142837554Y-80892545D01*
X142787680Y-80799248D01*
X142584273Y-80713161D01*
X141827434Y-81470000D01*
X141462566Y-81470000D01*
X140705283Y-80712716D01*
X140600000Y-80757600D01*
X140600000Y-80530283D01*
X140887716Y-80530283D01*
X141645000Y-81287566D01*
X142401839Y-80530727D01*
X142315752Y-80327320D01*
X142222455Y-80277446D01*
X142008683Y-80198743D01*
X142079941Y-80181585D01*
X142315755Y-80072684D01*
X142402284Y-79869717D01*
X141645000Y-79112434D01*
X140888161Y-79869273D01*
X140974248Y-80072680D01*
X141067545Y-80122554D01*
X141281317Y-80201257D01*
X141210059Y-80218415D01*
X140974245Y-80327316D01*
X140887716Y-80530283D01*
X140600000Y-80530283D01*
X140600000Y-79642093D01*
X140705727Y-79686839D01*
X141462566Y-78930000D01*
X141827434Y-78930000D01*
X142584717Y-79687284D01*
X142787684Y-79600755D01*
X142896585Y-79364941D01*
X142957389Y-79112412D01*
X142967758Y-78852872D01*
X142961671Y-78814273D01*
X143010000Y-78814273D01*
X143010000Y-79045727D01*
X143055155Y-79272735D01*
X143143729Y-79486571D01*
X143272318Y-79679019D01*
X143435981Y-79842682D01*
X143628429Y-79971271D01*
X143842265Y-80059845D01*
X144069273Y-80105000D01*
X144300727Y-80105000D01*
X144527735Y-80059845D01*
X144741571Y-79971271D01*
X144934019Y-79842682D01*
X145097682Y-79679019D01*
X145226271Y-79486571D01*
X145314845Y-79272735D01*
X145360000Y-79045727D01*
X145360000Y-78814273D01*
X145314845Y-78587265D01*
X145226271Y-78373429D01*
X145097682Y-78180981D01*
X144934019Y-78017318D01*
X144741571Y-77888729D01*
X144527735Y-77800155D01*
X144300727Y-77755000D01*
X144069273Y-77755000D01*
X143842265Y-77800155D01*
X143628429Y-77888729D01*
X143435981Y-78017318D01*
X143272318Y-78180981D01*
X143143729Y-78373429D01*
X143055155Y-78587265D01*
X143010000Y-78814273D01*
X142961671Y-78814273D01*
X142927295Y-78596297D01*
X142837554Y-78352545D01*
X142787680Y-78259248D01*
X142584273Y-78173161D01*
X141827434Y-78930000D01*
X141462566Y-78930000D01*
X140705283Y-78172716D01*
X140600000Y-78217600D01*
X140600000Y-77990283D01*
X140887716Y-77990283D01*
X141645000Y-78747566D01*
X142401839Y-77990727D01*
X142315752Y-77787320D01*
X142222455Y-77737446D01*
X142008683Y-77658743D01*
X142079941Y-77641585D01*
X142315755Y-77532684D01*
X142402284Y-77329717D01*
X141645000Y-76572434D01*
X140888161Y-77329273D01*
X140974248Y-77532680D01*
X141067545Y-77582554D01*
X141281317Y-77661257D01*
X141210059Y-77678415D01*
X140974245Y-77787316D01*
X140887716Y-77990283D01*
X140600000Y-77990283D01*
X140600000Y-77102093D01*
X140705727Y-77146839D01*
X141462566Y-76390000D01*
X141827434Y-76390000D01*
X142584717Y-77147284D01*
X142787684Y-77060755D01*
X142896585Y-76824941D01*
X142957389Y-76572412D01*
X142967758Y-76312872D01*
X142961671Y-76274273D01*
X143010000Y-76274273D01*
X143010000Y-76505727D01*
X143055155Y-76732735D01*
X143143729Y-76946571D01*
X143272318Y-77139019D01*
X143435981Y-77302682D01*
X143628429Y-77431271D01*
X143842265Y-77519845D01*
X144069273Y-77565000D01*
X144300727Y-77565000D01*
X144527735Y-77519845D01*
X144741571Y-77431271D01*
X144934019Y-77302682D01*
X145097682Y-77139019D01*
X145226271Y-76946571D01*
X145314845Y-76732735D01*
X145360000Y-76505727D01*
X145360000Y-76274273D01*
X145314845Y-76047265D01*
X145226271Y-75833429D01*
X145097682Y-75640981D01*
X144934019Y-75477318D01*
X144764835Y-75364273D01*
X152685000Y-75364273D01*
X152685000Y-75595727D01*
X152730155Y-75822735D01*
X152818729Y-76036571D01*
X152947318Y-76229019D01*
X153110981Y-76392682D01*
X153303429Y-76521271D01*
X153517265Y-76609845D01*
X153744273Y-76655000D01*
X153975727Y-76655000D01*
X154202735Y-76609845D01*
X154416571Y-76521271D01*
X154609019Y-76392682D01*
X154772682Y-76229019D01*
X154901271Y-76036571D01*
X154989845Y-75822735D01*
X155035000Y-75595727D01*
X155035000Y-75364273D01*
X154989845Y-75137265D01*
X154901271Y-74923429D01*
X154772682Y-74730981D01*
X154609019Y-74567318D01*
X154416571Y-74438729D01*
X154202735Y-74350155D01*
X153975727Y-74305000D01*
X153744273Y-74305000D01*
X153517265Y-74350155D01*
X153303429Y-74438729D01*
X153110981Y-74567318D01*
X152947318Y-74730981D01*
X152818729Y-74923429D01*
X152730155Y-75137265D01*
X152685000Y-75364273D01*
X144764835Y-75364273D01*
X144741571Y-75348729D01*
X144527735Y-75260155D01*
X144300727Y-75215000D01*
X144069273Y-75215000D01*
X143842265Y-75260155D01*
X143628429Y-75348729D01*
X143435981Y-75477318D01*
X143272318Y-75640981D01*
X143143729Y-75833429D01*
X143055155Y-76047265D01*
X143010000Y-76274273D01*
X142961671Y-76274273D01*
X142927295Y-76056297D01*
X142837554Y-75812545D01*
X142787680Y-75719248D01*
X142584273Y-75633161D01*
X141827434Y-76390000D01*
X141462566Y-76390000D01*
X140705283Y-75632716D01*
X140600000Y-75677600D01*
X140600000Y-75450283D01*
X140887716Y-75450283D01*
X141645000Y-76207566D01*
X142401839Y-75450727D01*
X142315752Y-75247320D01*
X142222455Y-75197446D01*
X142008683Y-75118743D01*
X142079941Y-75101585D01*
X142315755Y-74992684D01*
X142402284Y-74789717D01*
X141645000Y-74032434D01*
X140888161Y-74789273D01*
X140974248Y-74992680D01*
X141067545Y-75042554D01*
X141281317Y-75121257D01*
X141210059Y-75138415D01*
X140974245Y-75247316D01*
X140887716Y-75450283D01*
X140600000Y-75450283D01*
X140600000Y-74562093D01*
X140705727Y-74606839D01*
X141462566Y-73850000D01*
X141827434Y-73850000D01*
X142584717Y-74607284D01*
X142787684Y-74520755D01*
X142896585Y-74284941D01*
X142957389Y-74032412D01*
X142967758Y-73772872D01*
X142961671Y-73734273D01*
X143010000Y-73734273D01*
X143010000Y-73965727D01*
X143055155Y-74192735D01*
X143143729Y-74406571D01*
X143272318Y-74599019D01*
X143435981Y-74762682D01*
X143628429Y-74891271D01*
X143842265Y-74979845D01*
X144069273Y-75025000D01*
X144300727Y-75025000D01*
X144527735Y-74979845D01*
X144741571Y-74891271D01*
X144934019Y-74762682D01*
X145097682Y-74599019D01*
X145226271Y-74406571D01*
X145314845Y-74192735D01*
X145360000Y-73965727D01*
X145360000Y-73734273D01*
X145314845Y-73507265D01*
X145226271Y-73293429D01*
X145097682Y-73100981D01*
X144934019Y-72937318D01*
X144741571Y-72808729D01*
X144527735Y-72720155D01*
X144300727Y-72675000D01*
X144069273Y-72675000D01*
X143842265Y-72720155D01*
X143628429Y-72808729D01*
X143435981Y-72937318D01*
X143272318Y-73100981D01*
X143143729Y-73293429D01*
X143055155Y-73507265D01*
X143010000Y-73734273D01*
X142961671Y-73734273D01*
X142927295Y-73516297D01*
X142837554Y-73272545D01*
X142787680Y-73179248D01*
X142584273Y-73093161D01*
X141827434Y-73850000D01*
X141462566Y-73850000D01*
X140705283Y-73092716D01*
X140600000Y-73137600D01*
X140600000Y-72910283D01*
X140887716Y-72910283D01*
X141645000Y-73667566D01*
X142401839Y-72910727D01*
X142315752Y-72707320D01*
X142222455Y-72657446D01*
X142008683Y-72578743D01*
X142079941Y-72561585D01*
X142315755Y-72452684D01*
X142402284Y-72249717D01*
X141645000Y-71492434D01*
X140888161Y-72249273D01*
X140974248Y-72452680D01*
X141067545Y-72502554D01*
X141281317Y-72581257D01*
X141210059Y-72598415D01*
X140974245Y-72707316D01*
X140887716Y-72910283D01*
X140600000Y-72910283D01*
X140600000Y-72022093D01*
X140705727Y-72066839D01*
X141462566Y-71310000D01*
X141827434Y-71310000D01*
X142584717Y-72067284D01*
X142787684Y-71980755D01*
X142896585Y-71744941D01*
X142957389Y-71492412D01*
X142967758Y-71232872D01*
X142961671Y-71194273D01*
X143010000Y-71194273D01*
X143010000Y-71425727D01*
X143055155Y-71652735D01*
X143143729Y-71866571D01*
X143272318Y-72059019D01*
X143435981Y-72222682D01*
X143628429Y-72351271D01*
X143842265Y-72439845D01*
X144069273Y-72485000D01*
X144300727Y-72485000D01*
X144527735Y-72439845D01*
X144741571Y-72351271D01*
X144934019Y-72222682D01*
X145097682Y-72059019D01*
X145226271Y-71866571D01*
X145260059Y-71785000D01*
X146713250Y-71785000D01*
X148187621Y-73259371D01*
X148202499Y-73277501D01*
X148274827Y-73336859D01*
X148357346Y-73380966D01*
X148419722Y-73399888D01*
X148446883Y-73408127D01*
X148539999Y-73417298D01*
X148563331Y-73415000D01*
X152784941Y-73415000D01*
X152818729Y-73496571D01*
X152947318Y-73689019D01*
X153110981Y-73852682D01*
X153303429Y-73981271D01*
X153517265Y-74069845D01*
X153744273Y-74115000D01*
X153975727Y-74115000D01*
X154202735Y-74069845D01*
X154416571Y-73981271D01*
X154609019Y-73852682D01*
X154772682Y-73689019D01*
X154901271Y-73496571D01*
X154989845Y-73282735D01*
X155035000Y-73055727D01*
X155035000Y-72824273D01*
X155225000Y-72824273D01*
X155225000Y-73055727D01*
X155270155Y-73282735D01*
X155358729Y-73496571D01*
X155487318Y-73689019D01*
X155650981Y-73852682D01*
X155843429Y-73981271D01*
X156057265Y-74069845D01*
X156284273Y-74115000D01*
X156515727Y-74115000D01*
X156742735Y-74069845D01*
X156956571Y-73981271D01*
X157149019Y-73852682D01*
X157312682Y-73689019D01*
X157441271Y-73496571D01*
X157529845Y-73282735D01*
X157575000Y-73055727D01*
X157575000Y-72824273D01*
X157529845Y-72597265D01*
X157441271Y-72383429D01*
X157312682Y-72190981D01*
X157149019Y-72027318D01*
X156956571Y-71898729D01*
X156742735Y-71810155D01*
X156515727Y-71765000D01*
X156284273Y-71765000D01*
X156057265Y-71810155D01*
X155843429Y-71898729D01*
X155650981Y-72027318D01*
X155487318Y-72190981D01*
X155358729Y-72383429D01*
X155270155Y-72597265D01*
X155225000Y-72824273D01*
X155035000Y-72824273D01*
X154989845Y-72597265D01*
X154901271Y-72383429D01*
X154772682Y-72190981D01*
X154609019Y-72027318D01*
X154416571Y-71898729D01*
X154202735Y-71810155D01*
X153975727Y-71765000D01*
X153744273Y-71765000D01*
X153517265Y-71810155D01*
X153303429Y-71898729D01*
X153110981Y-72027318D01*
X152947318Y-72190981D01*
X152818729Y-72383429D01*
X152784941Y-72465000D01*
X148736751Y-72465000D01*
X147262384Y-70990634D01*
X147247501Y-70972499D01*
X147175173Y-70913141D01*
X147092654Y-70869034D01*
X147003116Y-70841873D01*
X146933332Y-70835000D01*
X146910000Y-70832702D01*
X146886668Y-70835000D01*
X145260059Y-70835000D01*
X145226271Y-70753429D01*
X145142860Y-70628594D01*
X147675000Y-70628594D01*
X147675000Y-70771406D01*
X147702861Y-70911475D01*
X147757513Y-71043416D01*
X147836856Y-71162161D01*
X147937839Y-71263144D01*
X148056584Y-71342487D01*
X148188525Y-71397139D01*
X148328594Y-71425000D01*
X148471406Y-71425000D01*
X148611475Y-71397139D01*
X148743416Y-71342487D01*
X148862161Y-71263144D01*
X148963144Y-71162161D01*
X149042487Y-71043416D01*
X149097139Y-70911475D01*
X149104394Y-70875000D01*
X152784941Y-70875000D01*
X152818729Y-70956571D01*
X152947318Y-71149019D01*
X153110981Y-71312682D01*
X153303429Y-71441271D01*
X153517265Y-71529845D01*
X153744273Y-71575000D01*
X153975727Y-71575000D01*
X154202735Y-71529845D01*
X154416571Y-71441271D01*
X154562399Y-71343832D01*
X155638602Y-71343832D01*
X155725461Y-71547890D01*
X155962365Y-71657430D01*
X156216086Y-71718647D01*
X156476875Y-71729189D01*
X156734709Y-71688651D01*
X156979681Y-71598592D01*
X157074539Y-71547890D01*
X157161398Y-71343832D01*
X156400000Y-70582434D01*
X155638602Y-71343832D01*
X154562399Y-71343832D01*
X154609019Y-71312682D01*
X154772682Y-71149019D01*
X154901271Y-70956571D01*
X154989845Y-70742735D01*
X155035000Y-70515727D01*
X155035000Y-70476875D01*
X155070811Y-70476875D01*
X155111349Y-70734709D01*
X155201408Y-70979681D01*
X155252110Y-71074539D01*
X155456168Y-71161398D01*
X156217566Y-70400000D01*
X156582434Y-70400000D01*
X157343832Y-71161398D01*
X157547890Y-71074539D01*
X157657430Y-70837635D01*
X157718647Y-70583914D01*
X157729189Y-70323125D01*
X157688651Y-70065291D01*
X157598592Y-69820319D01*
X157547890Y-69725461D01*
X157343832Y-69638602D01*
X156582434Y-70400000D01*
X156217566Y-70400000D01*
X155456168Y-69638602D01*
X155252110Y-69725461D01*
X155142570Y-69962365D01*
X155081353Y-70216086D01*
X155070811Y-70476875D01*
X155035000Y-70476875D01*
X155035000Y-70284273D01*
X154989845Y-70057265D01*
X154901271Y-69843429D01*
X154772682Y-69650981D01*
X154609019Y-69487318D01*
X154562400Y-69456168D01*
X155638602Y-69456168D01*
X156400000Y-70217566D01*
X157161398Y-69456168D01*
X157074539Y-69252110D01*
X156837635Y-69142570D01*
X156583914Y-69081353D01*
X156323125Y-69070811D01*
X156065291Y-69111349D01*
X155820319Y-69201408D01*
X155725461Y-69252110D01*
X155638602Y-69456168D01*
X154562400Y-69456168D01*
X154416571Y-69358729D01*
X154202735Y-69270155D01*
X153975727Y-69225000D01*
X153744273Y-69225000D01*
X153517265Y-69270155D01*
X153303429Y-69358729D01*
X153110981Y-69487318D01*
X152947318Y-69650981D01*
X152818729Y-69843429D01*
X152784941Y-69925000D01*
X148723332Y-69925000D01*
X148699999Y-69922702D01*
X148606883Y-69931873D01*
X148579722Y-69940112D01*
X148517346Y-69959034D01*
X148483117Y-69977329D01*
X148471406Y-69975000D01*
X148328594Y-69975000D01*
X148188525Y-70002861D01*
X148056584Y-70057513D01*
X147937839Y-70136856D01*
X147836856Y-70237839D01*
X147757513Y-70356584D01*
X147702861Y-70488525D01*
X147675000Y-70628594D01*
X145142860Y-70628594D01*
X145097682Y-70560981D01*
X144934019Y-70397318D01*
X144741571Y-70268729D01*
X144527735Y-70180155D01*
X144300727Y-70135000D01*
X144069273Y-70135000D01*
X143842265Y-70180155D01*
X143628429Y-70268729D01*
X143435981Y-70397318D01*
X143272318Y-70560981D01*
X143143729Y-70753429D01*
X143055155Y-70967265D01*
X143010000Y-71194273D01*
X142961671Y-71194273D01*
X142927295Y-70976297D01*
X142837554Y-70732545D01*
X142787680Y-70639248D01*
X142584273Y-70553161D01*
X141827434Y-71310000D01*
X141462566Y-71310000D01*
X140705283Y-70552716D01*
X140600000Y-70597600D01*
X140600000Y-70370283D01*
X140887716Y-70370283D01*
X141645000Y-71127566D01*
X142401839Y-70370727D01*
X142315752Y-70167320D01*
X142222455Y-70117446D01*
X142008683Y-70038743D01*
X142079941Y-70021585D01*
X142315755Y-69912684D01*
X142402284Y-69709717D01*
X141645000Y-68952434D01*
X140888161Y-69709273D01*
X140974248Y-69912680D01*
X141067545Y-69962554D01*
X141281317Y-70041257D01*
X141210059Y-70058415D01*
X140974245Y-70167316D01*
X140887716Y-70370283D01*
X140600000Y-70370283D01*
X140600000Y-69482093D01*
X140705727Y-69526839D01*
X141462566Y-68770000D01*
X141827434Y-68770000D01*
X142584717Y-69527284D01*
X142787684Y-69440755D01*
X142896585Y-69204941D01*
X142957389Y-68952412D01*
X142967758Y-68692872D01*
X142961671Y-68654273D01*
X143010000Y-68654273D01*
X143010000Y-68885727D01*
X143055155Y-69112735D01*
X143143729Y-69326571D01*
X143272318Y-69519019D01*
X143435981Y-69682682D01*
X143628429Y-69811271D01*
X143842265Y-69899845D01*
X144069273Y-69945000D01*
X144300727Y-69945000D01*
X144527735Y-69899845D01*
X144741571Y-69811271D01*
X144934019Y-69682682D01*
X145097682Y-69519019D01*
X145226271Y-69326571D01*
X145260059Y-69245000D01*
X149525389Y-69245000D01*
X149536856Y-69262161D01*
X149637839Y-69363144D01*
X149756584Y-69442487D01*
X149888525Y-69497139D01*
X150028594Y-69525000D01*
X150171406Y-69525000D01*
X150311475Y-69497139D01*
X150443416Y-69442487D01*
X150562161Y-69363144D01*
X150663144Y-69262161D01*
X150742487Y-69143416D01*
X150797139Y-69011475D01*
X150825000Y-68871406D01*
X150825000Y-68728594D01*
X150797139Y-68588525D01*
X150742487Y-68456584D01*
X150663144Y-68337839D01*
X150562161Y-68236856D01*
X150443416Y-68157513D01*
X150311475Y-68102861D01*
X150171406Y-68075000D01*
X150028594Y-68075000D01*
X149888525Y-68102861D01*
X149756584Y-68157513D01*
X149637839Y-68236856D01*
X149579695Y-68295000D01*
X145260059Y-68295000D01*
X145226271Y-68213429D01*
X145097682Y-68020981D01*
X144934019Y-67857318D01*
X144741571Y-67728729D01*
X144527735Y-67640155D01*
X144300727Y-67595000D01*
X144069273Y-67595000D01*
X143842265Y-67640155D01*
X143628429Y-67728729D01*
X143435981Y-67857318D01*
X143272318Y-68020981D01*
X143143729Y-68213429D01*
X143055155Y-68427265D01*
X143010000Y-68654273D01*
X142961671Y-68654273D01*
X142927295Y-68436297D01*
X142837554Y-68192545D01*
X142787680Y-68099248D01*
X142584273Y-68013161D01*
X141827434Y-68770000D01*
X141462566Y-68770000D01*
X140705283Y-68012716D01*
X140600000Y-68057600D01*
X140600000Y-67830283D01*
X140887716Y-67830283D01*
X141645000Y-68587566D01*
X142401839Y-67830727D01*
X142315752Y-67627320D01*
X142222455Y-67577446D01*
X142008683Y-67498743D01*
X142079941Y-67481585D01*
X142315755Y-67372684D01*
X142402284Y-67169717D01*
X141645000Y-66412434D01*
X140888161Y-67169273D01*
X140974248Y-67372680D01*
X141067545Y-67422554D01*
X141281317Y-67501257D01*
X141210059Y-67518415D01*
X140974245Y-67627316D01*
X140887716Y-67830283D01*
X140600000Y-67830283D01*
X140600000Y-66942093D01*
X140705727Y-66986839D01*
X141462566Y-66230000D01*
X141827434Y-66230000D01*
X142584717Y-66987284D01*
X142787684Y-66900755D01*
X142896585Y-66664941D01*
X142957389Y-66412412D01*
X142967758Y-66152872D01*
X142961671Y-66114273D01*
X143010000Y-66114273D01*
X143010000Y-66345727D01*
X143055155Y-66572735D01*
X143143729Y-66786571D01*
X143272318Y-66979019D01*
X143435981Y-67142682D01*
X143628429Y-67271271D01*
X143842265Y-67359845D01*
X144069273Y-67405000D01*
X144300727Y-67405000D01*
X144527735Y-67359845D01*
X144741571Y-67271271D01*
X144934019Y-67142682D01*
X145097682Y-66979019D01*
X145226271Y-66786571D01*
X145314845Y-66572735D01*
X145360000Y-66345727D01*
X145360000Y-66114273D01*
X145314845Y-65887265D01*
X145226271Y-65673429D01*
X145097682Y-65480981D01*
X144934019Y-65317318D01*
X144741571Y-65188729D01*
X144527735Y-65100155D01*
X144300727Y-65055000D01*
X144069273Y-65055000D01*
X143842265Y-65100155D01*
X143628429Y-65188729D01*
X143435981Y-65317318D01*
X143272318Y-65480981D01*
X143143729Y-65673429D01*
X143055155Y-65887265D01*
X143010000Y-66114273D01*
X142961671Y-66114273D01*
X142927295Y-65896297D01*
X142837554Y-65652545D01*
X142787680Y-65559248D01*
X142584273Y-65473161D01*
X141827434Y-66230000D01*
X141462566Y-66230000D01*
X140705283Y-65472716D01*
X140600000Y-65517600D01*
X140600000Y-65290283D01*
X140887716Y-65290283D01*
X141645000Y-66047566D01*
X142401839Y-65290727D01*
X142315752Y-65087320D01*
X142222455Y-65037446D01*
X142008683Y-64958743D01*
X142079941Y-64941585D01*
X142315755Y-64832684D01*
X142402284Y-64629717D01*
X141645000Y-63872434D01*
X140888161Y-64629273D01*
X140974248Y-64832680D01*
X141067545Y-64882554D01*
X141281317Y-64961257D01*
X141210059Y-64978415D01*
X140974245Y-65087316D01*
X140887716Y-65290283D01*
X140600000Y-65290283D01*
X140600000Y-64402093D01*
X140705727Y-64446839D01*
X141462566Y-63690000D01*
X140705283Y-62932716D01*
X140600000Y-62977600D01*
X140600000Y-61697568D01*
X140603729Y-61706571D01*
%TA.AperFunction,Conductor*%
D17*
G36*
X140603729Y-61706571D02*
G01*
X140732318Y-61899019D01*
X140895981Y-62062682D01*
X141088429Y-62191271D01*
X141302265Y-62279845D01*
X141529273Y-62325000D01*
X141760727Y-62325000D01*
X141987735Y-62279845D01*
X142069306Y-62246057D01*
X142487906Y-62664657D01*
X142401838Y-62750725D01*
X142315752Y-62547320D01*
X142222455Y-62497446D01*
X141978703Y-62407705D01*
X141722128Y-62367242D01*
X141462588Y-62377611D01*
X141210059Y-62438415D01*
X140974245Y-62547316D01*
X140887716Y-62750283D01*
X141645000Y-63507566D01*
X141659142Y-63493424D01*
X141841576Y-63675858D01*
X141827434Y-63690000D01*
X142584717Y-64447284D01*
X142787684Y-64360755D01*
X142896585Y-64124941D01*
X142957389Y-63872412D01*
X142967758Y-63612872D01*
X142927295Y-63356297D01*
X142837554Y-63112545D01*
X142787680Y-63019248D01*
X142584275Y-62933162D01*
X142673135Y-62844302D01*
X142606768Y-62777935D01*
X142629827Y-62796859D01*
X142712346Y-62840966D01*
X142774722Y-62859888D01*
X142801883Y-62868127D01*
X142895000Y-62877298D01*
X142918332Y-62875000D01*
X143338299Y-62875000D01*
X143272318Y-62940981D01*
X143143729Y-63133429D01*
X143055155Y-63347265D01*
X143010000Y-63574273D01*
X143010000Y-63805727D01*
X143055155Y-64032735D01*
X143143729Y-64246571D01*
X143272318Y-64439019D01*
X143435981Y-64602682D01*
X143628429Y-64731271D01*
X143842265Y-64819845D01*
X144069273Y-64865000D01*
X144300727Y-64865000D01*
X144527735Y-64819845D01*
X144741571Y-64731271D01*
X144934019Y-64602682D01*
X145097682Y-64439019D01*
X145226271Y-64246571D01*
X145314845Y-64032735D01*
X145360000Y-63805727D01*
X145360000Y-63574273D01*
X145314845Y-63347265D01*
X145226271Y-63133429D01*
X145097682Y-62940981D01*
X145031701Y-62875000D01*
X145503250Y-62875000D01*
X145948428Y-63320179D01*
X145948428Y-63525000D01*
X145958546Y-63627729D01*
X145988511Y-63726510D01*
X146037171Y-63817548D01*
X146102657Y-63897343D01*
X146182452Y-63962829D01*
X146273490Y-64011489D01*
X146372271Y-64041454D01*
X146475000Y-64051572D01*
X147025000Y-64051572D01*
X147127729Y-64041454D01*
X147226510Y-64011489D01*
X147317548Y-63962829D01*
X147397343Y-63897343D01*
X147462829Y-63817548D01*
X147511489Y-63726510D01*
X147541454Y-63627729D01*
X147551572Y-63525000D01*
X147551572Y-63264744D01*
X152073439Y-67786612D01*
X152091446Y-67808554D01*
X152133153Y-67842782D01*
X152179001Y-67880408D01*
X152278892Y-67933801D01*
X152387280Y-67966680D01*
X152471754Y-67975000D01*
X152471756Y-67975000D01*
X152499999Y-67977782D01*
X152528242Y-67975000D01*
X156161828Y-67975000D01*
X157925001Y-69738173D01*
X157925000Y-73761827D01*
X157298106Y-74388721D01*
X157220645Y-74347317D01*
X157112484Y-74314507D01*
X157000000Y-74303428D01*
X155800000Y-74303428D01*
X155687516Y-74314507D01*
X155579355Y-74347317D01*
X155479674Y-74400598D01*
X155392302Y-74472302D01*
X155320598Y-74559674D01*
X155267317Y-74659355D01*
X155234507Y-74767516D01*
X155223428Y-74880000D01*
X155223428Y-76080000D01*
X155234507Y-76192484D01*
X155267317Y-76300645D01*
X155320598Y-76400326D01*
X155392302Y-76487698D01*
X155479674Y-76559402D01*
X155579355Y-76612683D01*
X155687516Y-76645493D01*
X155800000Y-76656572D01*
X157000000Y-76656572D01*
X157112484Y-76645493D01*
X157220645Y-76612683D01*
X157320326Y-76559402D01*
X157407698Y-76487698D01*
X157479402Y-76400326D01*
X157532683Y-76300645D01*
X157565493Y-76192484D01*
X157576572Y-76080000D01*
X157576572Y-75736600D01*
X158886613Y-74426560D01*
X158908554Y-74408554D01*
X158958809Y-74347317D01*
X158980408Y-74320999D01*
X159033801Y-74221108D01*
X159042408Y-74192735D01*
X159066680Y-74112720D01*
X159075000Y-74028246D01*
X159075000Y-74028244D01*
X159077782Y-74000001D01*
X159075000Y-73971758D01*
X159075000Y-69528242D01*
X159077782Y-69499999D01*
X159072117Y-69442487D01*
X159066680Y-69387280D01*
X159033801Y-69278892D01*
X158994273Y-69204941D01*
X158980408Y-69179001D01*
X158960085Y-69154238D01*
X158908554Y-69091446D01*
X158886606Y-69073434D01*
X156826566Y-67013394D01*
X156808554Y-66991446D01*
X156720998Y-66919592D01*
X156621108Y-66866199D01*
X156512720Y-66833320D01*
X156428246Y-66825000D01*
X156428243Y-66825000D01*
X156400000Y-66822218D01*
X156371757Y-66825000D01*
X152738173Y-66825000D01*
X152228418Y-66315245D01*
X152375816Y-65185196D01*
X152450308Y-65247458D01*
X152451315Y-65248685D01*
X152476723Y-65269536D01*
X152488730Y-65279572D01*
X152490036Y-65280462D01*
X152504610Y-65292422D01*
X152518457Y-65299823D01*
X152531434Y-65308664D01*
X152548785Y-65316034D01*
X152565413Y-65324922D01*
X152580442Y-65329481D01*
X152594890Y-65335618D01*
X152613342Y-65339461D01*
X152631388Y-65344935D01*
X152647019Y-65346475D01*
X152662386Y-65349675D01*
X152681232Y-65349844D01*
X152682811Y-65350000D01*
X152698524Y-65350000D01*
X152731327Y-65350295D01*
X152732883Y-65350000D01*
X159450001Y-65350000D01*
X159450000Y-80450000D01*
X152758678Y-80450000D01*
X152732949Y-80448721D01*
X152707248Y-80452518D01*
X152681388Y-80455065D01*
X152673205Y-80457547D01*
X152664745Y-80458797D01*
X152640283Y-80467534D01*
X152615413Y-80475078D01*
X152607866Y-80479112D01*
X152599819Y-80481986D01*
X152577533Y-80495326D01*
X152554610Y-80507578D01*
X152534690Y-80523925D01*
X145884491Y-85450000D01*
X140600000Y-85450000D01*
X140600000Y-84949273D01*
X140888161Y-84949273D01*
X140974248Y-85152680D01*
X141067545Y-85202554D01*
X141311297Y-85292295D01*
X141567872Y-85332758D01*
X141827412Y-85322389D01*
X142079941Y-85261585D01*
X142315755Y-85152684D01*
X142402284Y-84949717D01*
X141645000Y-84192434D01*
X140888161Y-84949273D01*
X140600000Y-84949273D01*
X140600000Y-84722093D01*
X140705727Y-84766839D01*
X141462566Y-84010000D01*
X141827434Y-84010000D01*
X142584717Y-84767284D01*
X142787684Y-84680755D01*
X142896585Y-84444941D01*
X142957389Y-84192412D01*
X142967758Y-83932872D01*
X142961671Y-83894273D01*
X143010000Y-83894273D01*
X143010000Y-84125727D01*
X143055155Y-84352735D01*
X143143729Y-84566571D01*
X143272318Y-84759019D01*
X143435981Y-84922682D01*
X143628429Y-85051271D01*
X143842265Y-85139845D01*
X144069273Y-85185000D01*
X144300727Y-85185000D01*
X144527735Y-85139845D01*
X144741571Y-85051271D01*
X144934019Y-84922682D01*
X145097682Y-84759019D01*
X145226271Y-84566571D01*
X145314845Y-84352735D01*
X145360000Y-84125727D01*
X145360000Y-83894273D01*
X145314845Y-83667265D01*
X145226271Y-83453429D01*
X145097682Y-83260981D01*
X144934019Y-83097318D01*
X144741571Y-82968729D01*
X144527735Y-82880155D01*
X144300727Y-82835000D01*
X144069273Y-82835000D01*
X143842265Y-82880155D01*
X143628429Y-82968729D01*
X143435981Y-83097318D01*
X143272318Y-83260981D01*
X143143729Y-83453429D01*
X143055155Y-83667265D01*
X143010000Y-83894273D01*
X142961671Y-83894273D01*
X142927295Y-83676297D01*
X142837554Y-83432545D01*
X142787680Y-83339248D01*
X142584273Y-83253161D01*
X141827434Y-84010000D01*
X141462566Y-84010000D01*
X140705283Y-83252716D01*
X140600000Y-83297600D01*
X140600000Y-83070283D01*
X140887716Y-83070283D01*
X141645000Y-83827566D01*
X142401839Y-83070727D01*
X142315752Y-82867320D01*
X142222455Y-82817446D01*
X142008683Y-82738743D01*
X142079941Y-82721585D01*
X142315755Y-82612684D01*
X142402284Y-82409717D01*
X141645000Y-81652434D01*
X140888161Y-82409273D01*
X140974248Y-82612680D01*
X141067545Y-82662554D01*
X141281317Y-82741257D01*
X141210059Y-82758415D01*
X140974245Y-82867316D01*
X140887716Y-83070283D01*
X140600000Y-83070283D01*
X140600000Y-82182093D01*
X140705727Y-82226839D01*
X141462566Y-81470000D01*
X141827434Y-81470000D01*
X142584717Y-82227284D01*
X142787684Y-82140755D01*
X142896585Y-81904941D01*
X142957389Y-81652412D01*
X142967758Y-81392872D01*
X142961671Y-81354273D01*
X143010000Y-81354273D01*
X143010000Y-81585727D01*
X143055155Y-81812735D01*
X143143729Y-82026571D01*
X143272318Y-82219019D01*
X143435981Y-82382682D01*
X143628429Y-82511271D01*
X143842265Y-82599845D01*
X144069273Y-82645000D01*
X144300727Y-82645000D01*
X144527735Y-82599845D01*
X144741571Y-82511271D01*
X144934019Y-82382682D01*
X145097682Y-82219019D01*
X145226271Y-82026571D01*
X145314845Y-81812735D01*
X145360000Y-81585727D01*
X145360000Y-81354273D01*
X145314845Y-81127265D01*
X145226271Y-80913429D01*
X145097682Y-80720981D01*
X144934019Y-80557318D01*
X144741571Y-80428729D01*
X144527735Y-80340155D01*
X144300727Y-80295000D01*
X144069273Y-80295000D01*
X143842265Y-80340155D01*
X143628429Y-80428729D01*
X143435981Y-80557318D01*
X143272318Y-80720981D01*
X143143729Y-80913429D01*
X143055155Y-81127265D01*
X143010000Y-81354273D01*
X142961671Y-81354273D01*
X142927295Y-81136297D01*
X142837554Y-80892545D01*
X142787680Y-80799248D01*
X142584273Y-80713161D01*
X141827434Y-81470000D01*
X141462566Y-81470000D01*
X140705283Y-80712716D01*
X140600000Y-80757600D01*
X140600000Y-80530283D01*
X140887716Y-80530283D01*
X141645000Y-81287566D01*
X142401839Y-80530727D01*
X142315752Y-80327320D01*
X142222455Y-80277446D01*
X142008683Y-80198743D01*
X142079941Y-80181585D01*
X142315755Y-80072684D01*
X142402284Y-79869717D01*
X141645000Y-79112434D01*
X140888161Y-79869273D01*
X140974248Y-80072680D01*
X141067545Y-80122554D01*
X141281317Y-80201257D01*
X141210059Y-80218415D01*
X140974245Y-80327316D01*
X140887716Y-80530283D01*
X140600000Y-80530283D01*
X140600000Y-79642093D01*
X140705727Y-79686839D01*
X141462566Y-78930000D01*
X141827434Y-78930000D01*
X142584717Y-79687284D01*
X142787684Y-79600755D01*
X142896585Y-79364941D01*
X142957389Y-79112412D01*
X142967758Y-78852872D01*
X142961671Y-78814273D01*
X143010000Y-78814273D01*
X143010000Y-79045727D01*
X143055155Y-79272735D01*
X143143729Y-79486571D01*
X143272318Y-79679019D01*
X143435981Y-79842682D01*
X143628429Y-79971271D01*
X143842265Y-80059845D01*
X144069273Y-80105000D01*
X144300727Y-80105000D01*
X144527735Y-80059845D01*
X144741571Y-79971271D01*
X144934019Y-79842682D01*
X145097682Y-79679019D01*
X145226271Y-79486571D01*
X145314845Y-79272735D01*
X145360000Y-79045727D01*
X145360000Y-78814273D01*
X145314845Y-78587265D01*
X145226271Y-78373429D01*
X145097682Y-78180981D01*
X144934019Y-78017318D01*
X144741571Y-77888729D01*
X144527735Y-77800155D01*
X144300727Y-77755000D01*
X144069273Y-77755000D01*
X143842265Y-77800155D01*
X143628429Y-77888729D01*
X143435981Y-78017318D01*
X143272318Y-78180981D01*
X143143729Y-78373429D01*
X143055155Y-78587265D01*
X143010000Y-78814273D01*
X142961671Y-78814273D01*
X142927295Y-78596297D01*
X142837554Y-78352545D01*
X142787680Y-78259248D01*
X142584273Y-78173161D01*
X141827434Y-78930000D01*
X141462566Y-78930000D01*
X140705283Y-78172716D01*
X140600000Y-78217600D01*
X140600000Y-77990283D01*
X140887716Y-77990283D01*
X141645000Y-78747566D01*
X142401839Y-77990727D01*
X142315752Y-77787320D01*
X142222455Y-77737446D01*
X142008683Y-77658743D01*
X142079941Y-77641585D01*
X142315755Y-77532684D01*
X142402284Y-77329717D01*
X141645000Y-76572434D01*
X140888161Y-77329273D01*
X140974248Y-77532680D01*
X141067545Y-77582554D01*
X141281317Y-77661257D01*
X141210059Y-77678415D01*
X140974245Y-77787316D01*
X140887716Y-77990283D01*
X140600000Y-77990283D01*
X140600000Y-77102093D01*
X140705727Y-77146839D01*
X141462566Y-76390000D01*
X141827434Y-76390000D01*
X142584717Y-77147284D01*
X142787684Y-77060755D01*
X142896585Y-76824941D01*
X142957389Y-76572412D01*
X142967758Y-76312872D01*
X142961671Y-76274273D01*
X143010000Y-76274273D01*
X143010000Y-76505727D01*
X143055155Y-76732735D01*
X143143729Y-76946571D01*
X143272318Y-77139019D01*
X143435981Y-77302682D01*
X143628429Y-77431271D01*
X143842265Y-77519845D01*
X144069273Y-77565000D01*
X144300727Y-77565000D01*
X144527735Y-77519845D01*
X144741571Y-77431271D01*
X144934019Y-77302682D01*
X145097682Y-77139019D01*
X145226271Y-76946571D01*
X145314845Y-76732735D01*
X145360000Y-76505727D01*
X145360000Y-76274273D01*
X145314845Y-76047265D01*
X145226271Y-75833429D01*
X145097682Y-75640981D01*
X144934019Y-75477318D01*
X144764835Y-75364273D01*
X152685000Y-75364273D01*
X152685000Y-75595727D01*
X152730155Y-75822735D01*
X152818729Y-76036571D01*
X152947318Y-76229019D01*
X153110981Y-76392682D01*
X153303429Y-76521271D01*
X153517265Y-76609845D01*
X153744273Y-76655000D01*
X153975727Y-76655000D01*
X154202735Y-76609845D01*
X154416571Y-76521271D01*
X154609019Y-76392682D01*
X154772682Y-76229019D01*
X154901271Y-76036571D01*
X154989845Y-75822735D01*
X155035000Y-75595727D01*
X155035000Y-75364273D01*
X154989845Y-75137265D01*
X154901271Y-74923429D01*
X154772682Y-74730981D01*
X154609019Y-74567318D01*
X154416571Y-74438729D01*
X154202735Y-74350155D01*
X153975727Y-74305000D01*
X153744273Y-74305000D01*
X153517265Y-74350155D01*
X153303429Y-74438729D01*
X153110981Y-74567318D01*
X152947318Y-74730981D01*
X152818729Y-74923429D01*
X152730155Y-75137265D01*
X152685000Y-75364273D01*
X144764835Y-75364273D01*
X144741571Y-75348729D01*
X144527735Y-75260155D01*
X144300727Y-75215000D01*
X144069273Y-75215000D01*
X143842265Y-75260155D01*
X143628429Y-75348729D01*
X143435981Y-75477318D01*
X143272318Y-75640981D01*
X143143729Y-75833429D01*
X143055155Y-76047265D01*
X143010000Y-76274273D01*
X142961671Y-76274273D01*
X142927295Y-76056297D01*
X142837554Y-75812545D01*
X142787680Y-75719248D01*
X142584273Y-75633161D01*
X141827434Y-76390000D01*
X141462566Y-76390000D01*
X140705283Y-75632716D01*
X140600000Y-75677600D01*
X140600000Y-75450283D01*
X140887716Y-75450283D01*
X141645000Y-76207566D01*
X142401839Y-75450727D01*
X142315752Y-75247320D01*
X142222455Y-75197446D01*
X142008683Y-75118743D01*
X142079941Y-75101585D01*
X142315755Y-74992684D01*
X142402284Y-74789717D01*
X141645000Y-74032434D01*
X140888161Y-74789273D01*
X140974248Y-74992680D01*
X141067545Y-75042554D01*
X141281317Y-75121257D01*
X141210059Y-75138415D01*
X140974245Y-75247316D01*
X140887716Y-75450283D01*
X140600000Y-75450283D01*
X140600000Y-74562093D01*
X140705727Y-74606839D01*
X141462566Y-73850000D01*
X141827434Y-73850000D01*
X142584717Y-74607284D01*
X142787684Y-74520755D01*
X142896585Y-74284941D01*
X142957389Y-74032412D01*
X142967758Y-73772872D01*
X142961671Y-73734273D01*
X143010000Y-73734273D01*
X143010000Y-73965727D01*
X143055155Y-74192735D01*
X143143729Y-74406571D01*
X143272318Y-74599019D01*
X143435981Y-74762682D01*
X143628429Y-74891271D01*
X143842265Y-74979845D01*
X144069273Y-75025000D01*
X144300727Y-75025000D01*
X144527735Y-74979845D01*
X144741571Y-74891271D01*
X144934019Y-74762682D01*
X145097682Y-74599019D01*
X145226271Y-74406571D01*
X145314845Y-74192735D01*
X145360000Y-73965727D01*
X145360000Y-73734273D01*
X145314845Y-73507265D01*
X145226271Y-73293429D01*
X145097682Y-73100981D01*
X144934019Y-72937318D01*
X144741571Y-72808729D01*
X144527735Y-72720155D01*
X144300727Y-72675000D01*
X144069273Y-72675000D01*
X143842265Y-72720155D01*
X143628429Y-72808729D01*
X143435981Y-72937318D01*
X143272318Y-73100981D01*
X143143729Y-73293429D01*
X143055155Y-73507265D01*
X143010000Y-73734273D01*
X142961671Y-73734273D01*
X142927295Y-73516297D01*
X142837554Y-73272545D01*
X142787680Y-73179248D01*
X142584273Y-73093161D01*
X141827434Y-73850000D01*
X141462566Y-73850000D01*
X140705283Y-73092716D01*
X140600000Y-73137600D01*
X140600000Y-72910283D01*
X140887716Y-72910283D01*
X141645000Y-73667566D01*
X142401839Y-72910727D01*
X142315752Y-72707320D01*
X142222455Y-72657446D01*
X142008683Y-72578743D01*
X142079941Y-72561585D01*
X142315755Y-72452684D01*
X142402284Y-72249717D01*
X141645000Y-71492434D01*
X140888161Y-72249273D01*
X140974248Y-72452680D01*
X141067545Y-72502554D01*
X141281317Y-72581257D01*
X141210059Y-72598415D01*
X140974245Y-72707316D01*
X140887716Y-72910283D01*
X140600000Y-72910283D01*
X140600000Y-72022093D01*
X140705727Y-72066839D01*
X141462566Y-71310000D01*
X141827434Y-71310000D01*
X142584717Y-72067284D01*
X142787684Y-71980755D01*
X142896585Y-71744941D01*
X142957389Y-71492412D01*
X142967758Y-71232872D01*
X142961671Y-71194273D01*
X143010000Y-71194273D01*
X143010000Y-71425727D01*
X143055155Y-71652735D01*
X143143729Y-71866571D01*
X143272318Y-72059019D01*
X143435981Y-72222682D01*
X143628429Y-72351271D01*
X143842265Y-72439845D01*
X144069273Y-72485000D01*
X144300727Y-72485000D01*
X144527735Y-72439845D01*
X144741571Y-72351271D01*
X144934019Y-72222682D01*
X145097682Y-72059019D01*
X145226271Y-71866571D01*
X145260059Y-71785000D01*
X146713250Y-71785000D01*
X148187621Y-73259371D01*
X148202499Y-73277501D01*
X148274827Y-73336859D01*
X148357346Y-73380966D01*
X148419722Y-73399888D01*
X148446883Y-73408127D01*
X148539999Y-73417298D01*
X148563331Y-73415000D01*
X152784941Y-73415000D01*
X152818729Y-73496571D01*
X152947318Y-73689019D01*
X153110981Y-73852682D01*
X153303429Y-73981271D01*
X153517265Y-74069845D01*
X153744273Y-74115000D01*
X153975727Y-74115000D01*
X154202735Y-74069845D01*
X154416571Y-73981271D01*
X154609019Y-73852682D01*
X154772682Y-73689019D01*
X154901271Y-73496571D01*
X154989845Y-73282735D01*
X155035000Y-73055727D01*
X155035000Y-72824273D01*
X155225000Y-72824273D01*
X155225000Y-73055727D01*
X155270155Y-73282735D01*
X155358729Y-73496571D01*
X155487318Y-73689019D01*
X155650981Y-73852682D01*
X155843429Y-73981271D01*
X156057265Y-74069845D01*
X156284273Y-74115000D01*
X156515727Y-74115000D01*
X156742735Y-74069845D01*
X156956571Y-73981271D01*
X157149019Y-73852682D01*
X157312682Y-73689019D01*
X157441271Y-73496571D01*
X157529845Y-73282735D01*
X157575000Y-73055727D01*
X157575000Y-72824273D01*
X157529845Y-72597265D01*
X157441271Y-72383429D01*
X157312682Y-72190981D01*
X157149019Y-72027318D01*
X156956571Y-71898729D01*
X156742735Y-71810155D01*
X156515727Y-71765000D01*
X156284273Y-71765000D01*
X156057265Y-71810155D01*
X155843429Y-71898729D01*
X155650981Y-72027318D01*
X155487318Y-72190981D01*
X155358729Y-72383429D01*
X155270155Y-72597265D01*
X155225000Y-72824273D01*
X155035000Y-72824273D01*
X154989845Y-72597265D01*
X154901271Y-72383429D01*
X154772682Y-72190981D01*
X154609019Y-72027318D01*
X154416571Y-71898729D01*
X154202735Y-71810155D01*
X153975727Y-71765000D01*
X153744273Y-71765000D01*
X153517265Y-71810155D01*
X153303429Y-71898729D01*
X153110981Y-72027318D01*
X152947318Y-72190981D01*
X152818729Y-72383429D01*
X152784941Y-72465000D01*
X148736751Y-72465000D01*
X147262384Y-70990634D01*
X147247501Y-70972499D01*
X147175173Y-70913141D01*
X147092654Y-70869034D01*
X147003116Y-70841873D01*
X146933332Y-70835000D01*
X146910000Y-70832702D01*
X146886668Y-70835000D01*
X145260059Y-70835000D01*
X145226271Y-70753429D01*
X145142860Y-70628594D01*
X147675000Y-70628594D01*
X147675000Y-70771406D01*
X147702861Y-70911475D01*
X147757513Y-71043416D01*
X147836856Y-71162161D01*
X147937839Y-71263144D01*
X148056584Y-71342487D01*
X148188525Y-71397139D01*
X148328594Y-71425000D01*
X148471406Y-71425000D01*
X148611475Y-71397139D01*
X148743416Y-71342487D01*
X148862161Y-71263144D01*
X148963144Y-71162161D01*
X149042487Y-71043416D01*
X149097139Y-70911475D01*
X149104394Y-70875000D01*
X152784941Y-70875000D01*
X152818729Y-70956571D01*
X152947318Y-71149019D01*
X153110981Y-71312682D01*
X153303429Y-71441271D01*
X153517265Y-71529845D01*
X153744273Y-71575000D01*
X153975727Y-71575000D01*
X154202735Y-71529845D01*
X154416571Y-71441271D01*
X154562399Y-71343832D01*
X155638602Y-71343832D01*
X155725461Y-71547890D01*
X155962365Y-71657430D01*
X156216086Y-71718647D01*
X156476875Y-71729189D01*
X156734709Y-71688651D01*
X156979681Y-71598592D01*
X157074539Y-71547890D01*
X157161398Y-71343832D01*
X156400000Y-70582434D01*
X155638602Y-71343832D01*
X154562399Y-71343832D01*
X154609019Y-71312682D01*
X154772682Y-71149019D01*
X154901271Y-70956571D01*
X154989845Y-70742735D01*
X155035000Y-70515727D01*
X155035000Y-70476875D01*
X155070811Y-70476875D01*
X155111349Y-70734709D01*
X155201408Y-70979681D01*
X155252110Y-71074539D01*
X155456168Y-71161398D01*
X156217566Y-70400000D01*
X156582434Y-70400000D01*
X157343832Y-71161398D01*
X157547890Y-71074539D01*
X157657430Y-70837635D01*
X157718647Y-70583914D01*
X157729189Y-70323125D01*
X157688651Y-70065291D01*
X157598592Y-69820319D01*
X157547890Y-69725461D01*
X157343832Y-69638602D01*
X156582434Y-70400000D01*
X156217566Y-70400000D01*
X155456168Y-69638602D01*
X155252110Y-69725461D01*
X155142570Y-69962365D01*
X155081353Y-70216086D01*
X155070811Y-70476875D01*
X155035000Y-70476875D01*
X155035000Y-70284273D01*
X154989845Y-70057265D01*
X154901271Y-69843429D01*
X154772682Y-69650981D01*
X154609019Y-69487318D01*
X154562400Y-69456168D01*
X155638602Y-69456168D01*
X156400000Y-70217566D01*
X157161398Y-69456168D01*
X157074539Y-69252110D01*
X156837635Y-69142570D01*
X156583914Y-69081353D01*
X156323125Y-69070811D01*
X156065291Y-69111349D01*
X155820319Y-69201408D01*
X155725461Y-69252110D01*
X155638602Y-69456168D01*
X154562400Y-69456168D01*
X154416571Y-69358729D01*
X154202735Y-69270155D01*
X153975727Y-69225000D01*
X153744273Y-69225000D01*
X153517265Y-69270155D01*
X153303429Y-69358729D01*
X153110981Y-69487318D01*
X152947318Y-69650981D01*
X152818729Y-69843429D01*
X152784941Y-69925000D01*
X148723332Y-69925000D01*
X148699999Y-69922702D01*
X148606883Y-69931873D01*
X148579722Y-69940112D01*
X148517346Y-69959034D01*
X148483117Y-69977329D01*
X148471406Y-69975000D01*
X148328594Y-69975000D01*
X148188525Y-70002861D01*
X148056584Y-70057513D01*
X147937839Y-70136856D01*
X147836856Y-70237839D01*
X147757513Y-70356584D01*
X147702861Y-70488525D01*
X147675000Y-70628594D01*
X145142860Y-70628594D01*
X145097682Y-70560981D01*
X144934019Y-70397318D01*
X144741571Y-70268729D01*
X144527735Y-70180155D01*
X144300727Y-70135000D01*
X144069273Y-70135000D01*
X143842265Y-70180155D01*
X143628429Y-70268729D01*
X143435981Y-70397318D01*
X143272318Y-70560981D01*
X143143729Y-70753429D01*
X143055155Y-70967265D01*
X143010000Y-71194273D01*
X142961671Y-71194273D01*
X142927295Y-70976297D01*
X142837554Y-70732545D01*
X142787680Y-70639248D01*
X142584273Y-70553161D01*
X141827434Y-71310000D01*
X141462566Y-71310000D01*
X140705283Y-70552716D01*
X140600000Y-70597600D01*
X140600000Y-70370283D01*
X140887716Y-70370283D01*
X141645000Y-71127566D01*
X142401839Y-70370727D01*
X142315752Y-70167320D01*
X142222455Y-70117446D01*
X142008683Y-70038743D01*
X142079941Y-70021585D01*
X142315755Y-69912684D01*
X142402284Y-69709717D01*
X141645000Y-68952434D01*
X140888161Y-69709273D01*
X140974248Y-69912680D01*
X141067545Y-69962554D01*
X141281317Y-70041257D01*
X141210059Y-70058415D01*
X140974245Y-70167316D01*
X140887716Y-70370283D01*
X140600000Y-70370283D01*
X140600000Y-69482093D01*
X140705727Y-69526839D01*
X141462566Y-68770000D01*
X141827434Y-68770000D01*
X142584717Y-69527284D01*
X142787684Y-69440755D01*
X142896585Y-69204941D01*
X142957389Y-68952412D01*
X142967758Y-68692872D01*
X142961671Y-68654273D01*
X143010000Y-68654273D01*
X143010000Y-68885727D01*
X143055155Y-69112735D01*
X143143729Y-69326571D01*
X143272318Y-69519019D01*
X143435981Y-69682682D01*
X143628429Y-69811271D01*
X143842265Y-69899845D01*
X144069273Y-69945000D01*
X144300727Y-69945000D01*
X144527735Y-69899845D01*
X144741571Y-69811271D01*
X144934019Y-69682682D01*
X145097682Y-69519019D01*
X145226271Y-69326571D01*
X145260059Y-69245000D01*
X149525389Y-69245000D01*
X149536856Y-69262161D01*
X149637839Y-69363144D01*
X149756584Y-69442487D01*
X149888525Y-69497139D01*
X150028594Y-69525000D01*
X150171406Y-69525000D01*
X150311475Y-69497139D01*
X150443416Y-69442487D01*
X150562161Y-69363144D01*
X150663144Y-69262161D01*
X150742487Y-69143416D01*
X150797139Y-69011475D01*
X150825000Y-68871406D01*
X150825000Y-68728594D01*
X150797139Y-68588525D01*
X150742487Y-68456584D01*
X150663144Y-68337839D01*
X150562161Y-68236856D01*
X150443416Y-68157513D01*
X150311475Y-68102861D01*
X150171406Y-68075000D01*
X150028594Y-68075000D01*
X149888525Y-68102861D01*
X149756584Y-68157513D01*
X149637839Y-68236856D01*
X149579695Y-68295000D01*
X145260059Y-68295000D01*
X145226271Y-68213429D01*
X145097682Y-68020981D01*
X144934019Y-67857318D01*
X144741571Y-67728729D01*
X144527735Y-67640155D01*
X144300727Y-67595000D01*
X144069273Y-67595000D01*
X143842265Y-67640155D01*
X143628429Y-67728729D01*
X143435981Y-67857318D01*
X143272318Y-68020981D01*
X143143729Y-68213429D01*
X143055155Y-68427265D01*
X143010000Y-68654273D01*
X142961671Y-68654273D01*
X142927295Y-68436297D01*
X142837554Y-68192545D01*
X142787680Y-68099248D01*
X142584273Y-68013161D01*
X141827434Y-68770000D01*
X141462566Y-68770000D01*
X140705283Y-68012716D01*
X140600000Y-68057600D01*
X140600000Y-67830283D01*
X140887716Y-67830283D01*
X141645000Y-68587566D01*
X142401839Y-67830727D01*
X142315752Y-67627320D01*
X142222455Y-67577446D01*
X142008683Y-67498743D01*
X142079941Y-67481585D01*
X142315755Y-67372684D01*
X142402284Y-67169717D01*
X141645000Y-66412434D01*
X140888161Y-67169273D01*
X140974248Y-67372680D01*
X141067545Y-67422554D01*
X141281317Y-67501257D01*
X141210059Y-67518415D01*
X140974245Y-67627316D01*
X140887716Y-67830283D01*
X140600000Y-67830283D01*
X140600000Y-66942093D01*
X140705727Y-66986839D01*
X141462566Y-66230000D01*
X141827434Y-66230000D01*
X142584717Y-66987284D01*
X142787684Y-66900755D01*
X142896585Y-66664941D01*
X142957389Y-66412412D01*
X142967758Y-66152872D01*
X142961671Y-66114273D01*
X143010000Y-66114273D01*
X143010000Y-66345727D01*
X143055155Y-66572735D01*
X143143729Y-66786571D01*
X143272318Y-66979019D01*
X143435981Y-67142682D01*
X143628429Y-67271271D01*
X143842265Y-67359845D01*
X144069273Y-67405000D01*
X144300727Y-67405000D01*
X144527735Y-67359845D01*
X144741571Y-67271271D01*
X144934019Y-67142682D01*
X145097682Y-66979019D01*
X145226271Y-66786571D01*
X145314845Y-66572735D01*
X145360000Y-66345727D01*
X145360000Y-66114273D01*
X145314845Y-65887265D01*
X145226271Y-65673429D01*
X145097682Y-65480981D01*
X144934019Y-65317318D01*
X144741571Y-65188729D01*
X144527735Y-65100155D01*
X144300727Y-65055000D01*
X144069273Y-65055000D01*
X143842265Y-65100155D01*
X143628429Y-65188729D01*
X143435981Y-65317318D01*
X143272318Y-65480981D01*
X143143729Y-65673429D01*
X143055155Y-65887265D01*
X143010000Y-66114273D01*
X142961671Y-66114273D01*
X142927295Y-65896297D01*
X142837554Y-65652545D01*
X142787680Y-65559248D01*
X142584273Y-65473161D01*
X141827434Y-66230000D01*
X141462566Y-66230000D01*
X140705283Y-65472716D01*
X140600000Y-65517600D01*
X140600000Y-65290283D01*
X140887716Y-65290283D01*
X141645000Y-66047566D01*
X142401839Y-65290727D01*
X142315752Y-65087320D01*
X142222455Y-65037446D01*
X142008683Y-64958743D01*
X142079941Y-64941585D01*
X142315755Y-64832684D01*
X142402284Y-64629717D01*
X141645000Y-63872434D01*
X140888161Y-64629273D01*
X140974248Y-64832680D01*
X141067545Y-64882554D01*
X141281317Y-64961257D01*
X141210059Y-64978415D01*
X140974245Y-65087316D01*
X140887716Y-65290283D01*
X140600000Y-65290283D01*
X140600000Y-64402093D01*
X140705727Y-64446839D01*
X141462566Y-63690000D01*
X140705283Y-62932716D01*
X140600000Y-62977600D01*
X140600000Y-61697568D01*
X140603729Y-61706571D01*
G37*
%TD.AperFunction*%
%TD*%
M02*
